<svg width="28" height="26" viewBox="0 0 28 26" fill="none" xmlns="http://www.w3.org/2000/svg">
<path fill-rule="evenodd" clip-rule="evenodd" d="M1.01245 12.211C1.01245 5.71349 6.91719 0.596436 14.0359 0.596436C21.1631 0.596436 27.0125 5.78387 27.0125 12.2736C27.0125 18.7712 21.1077 23.8882 13.989 23.8882C13.0759 23.8882 12.2069 23.7829 11.3515 23.6123C10.4204 24.0169 8.78667 24.689 7.04639 25.1695C6.1027 25.4303 5.1219 25.639 4.20859 25.7029C3.3108 25.7657 2.38391 25.7088 1.60736 25.2617L1.59776 25.2562L1.58841 25.2503L1.41621 25.1407L1.2609 25.0418L1.20676 24.8659L1.14414 24.6624L1.14122 24.6529L1.13868 24.6433C1.01649 24.1817 1.19651 23.7839 1.34187 23.5569C1.49 23.3256 1.6707 23.149 1.83558 23.0008M14.0359 1.59644C7.35145 1.59644 2.01245 6.37685 2.01245 12.211C2.01245 15.0792 3.32651 17.6701 5.46413 19.6049L5.70395 19.8219L5.60427 20.1297C5.22534 21.2995 4.39096 22.1936 3.6007 22.8494L3.60021 22.8498C3.41955 22.9993 3.25471 23.1301 3.10213 23.251C2.88063 23.4267 2.68497 23.5818 2.50429 23.7443L2.50416 23.7445C2.35989 23.8741 2.25888 23.9793 2.18397 24.0962C2.10864 24.2138 2.08794 24.3106 2.10377 24.3808L2.1084 24.3959L2.11537 24.4003C2.62924 24.6924 3.30775 24.7635 4.13879 24.7054C4.9592 24.648 5.86867 24.4575 6.78001 24.2056L6.78014 24.2056C8.54553 23.7182 10.2103 23.0212 11.0956 22.6329L11.2421 22.5687L11.3987 22.6014C12.2535 22.7799 13.103 22.8882 13.989 22.8882C20.6735 22.8882 26.0125 18.1078 26.0125 12.2736C26.0125 6.43561 20.7159 1.59644 14.0359 1.59644ZM1.01245 12.211C1.01245 15.2848 2.37222 18.0419 4.54323 20.1141L1.01245 12.211ZM4.54323 20.1141C4.21168 20.8913 3.61076 21.5415 2.96241 22.0796C2.82069 22.1969 2.67044 22.3164 2.52122 22.435C2.27566 22.6303 2.03293 22.8233 1.83571 23.0007M14.036 2.59833C7.82756 2.59833 3.0144 6.98863 3.0144 12.211C3.0144 14.8928 4.24783 17.3296 6.34869 19.115L6.5871 19.2938L6.85269 19.493L6.77217 19.8151L6.69446 20.1259C6.69436 20.1263 6.69426 20.1267 6.69417 20.1271C6.28746 21.7848 5.13025 22.8801 4.24277 23.6163C4.24269 23.6164 4.24262 23.6165 4.24254 23.6165L3.9233 23.2317L4.2432 23.616C4.24306 23.6161 4.24291 23.6162 4.24277 23.6163C4.20922 23.6443 4.17607 23.6716 4.14337 23.6985C4.12104 23.7003 4.09883 23.7019 4.07675 23.7035C3.74387 23.7264 3.53913 23.6718 3.26504 23.5987C3.20043 23.5815 3.13196 23.5632 3.05706 23.5447L2.93707 24.0301L3.26271 24.4095C3.37819 24.3104 3.51725 24.1999 3.68521 24.0666L3.69116 24.0619C3.80985 23.9677 3.94045 23.8641 4.07987 23.7505L4.11115 24.2023L4.07998 23.7504C4.10092 23.7333 4.12205 23.716 4.14337 23.6985C4.84419 23.6429 5.66661 23.4683 6.51429 23.235L6.64715 23.717L6.51443 23.2349C6.51438 23.2349 6.51434 23.235 6.51429 23.235C8.24197 22.7588 9.97363 22.055 10.8076 21.6877L10.7875 21.6988L11.0304 22.1359L10.8284 21.6785C10.8215 21.6815 10.8146 21.6846 10.8076 21.6877L10.9284 21.6206L11.1064 21.5217L11.3028 21.5752L11.4632 21.619C11.4593 21.6181 11.4554 21.6173 11.4515 21.6164L11.3435 22.1046L11.475 21.6222L11.4632 21.619C12.2885 21.8007 13.1115 21.8864 13.989 21.8864C20.1975 21.8864 25.0106 17.4961 25.0106 12.2737C25.0106 7.04127 20.2357 2.59833 14.036 2.59833ZM2.0144 12.211C2.0144 6.32277 7.39615 1.59833 14.036 1.59833C20.6807 1.59833 26.0106 6.38754 26.0106 12.2737C26.0106 18.1619 20.6289 22.8864 13.989 22.8864C13.0392 22.8864 12.1399 22.7929 11.2355 22.5928L11.2341 22.5925L11.2323 22.5933C10.3831 22.9683 8.58748 23.7008 6.78002 24.199L6.77988 24.1991C5.8779 24.4474 4.95687 24.6449 4.14568 24.7011L4.14555 24.7011C3.63331 24.7364 3.25903 24.6345 2.97224 24.5565C2.91745 24.5416 2.86585 24.5275 2.81709 24.5155L1.87511 24.2826L2.61143 23.6507C2.74413 23.5368 2.89911 23.4138 3.06238 23.2842L3.06362 23.2832L3.06689 23.2807C3.23223 23.1495 3.41118 23.0075 3.60339 22.8474L3.60405 22.8469C4.46039 22.1365 5.39478 21.2185 5.7216 19.8944L5.71336 19.8874C3.40652 17.9323 2.0144 15.2227 2.0144 12.211Z" fill="white"/>
<path d="M11.3515 23.6123L11.4003 23.3672L11.3236 23.3519L11.2518 23.3831L11.3515 23.6123ZM7.04639 25.1695L6.97986 24.9285L6.9798 24.9285L7.04639 25.1695ZM4.20859 25.7029L4.22605 25.9523H4.22605L4.20859 25.7029ZM1.60736 25.2617L1.48261 25.4784L1.48262 25.4784L1.60736 25.2617ZM1.59776 25.2562L1.4634 25.4673L1.473 25.4729L1.59776 25.2562ZM1.58841 25.2503L1.72263 25.0394L1.72263 25.0394L1.58841 25.2503ZM1.41621 25.1407L1.55043 24.9298H1.55043L1.41621 25.1407ZM1.2609 25.0418L1.02195 25.1154L1.04902 25.2033L1.12668 25.2528L1.2609 25.0418ZM1.20676 24.8659L0.967815 24.9394L0.967815 24.9394L1.20676 24.8659ZM1.14414 24.6624L0.905196 24.7359L0.905197 24.7359L1.14414 24.6624ZM1.14122 24.6529L0.899356 24.7169L0.902274 24.7264L1.14122 24.6529ZM1.13868 24.6433L0.897003 24.7073L0.897004 24.7073L1.13868 24.6433ZM1.34187 23.5569L1.13135 23.4221H1.13135L1.34187 23.5569ZM1.83558 23.0008L2.0027 23.1868L2.09422 23.1045L2.08486 22.9818L1.83558 23.0008ZM5.46413 19.6049L5.29637 19.7902H5.29637L5.46413 19.6049ZM5.70395 19.8219L5.94179 19.899L5.99162 19.7451L5.87171 19.6366L5.70395 19.8219ZM5.60427 20.1297L5.84211 20.2067L5.60427 20.1297ZM3.6007 22.8494L3.76023 23.0419L3.76036 23.0418L3.6007 22.8494ZM3.60021 22.8498L3.75962 23.0424L3.75974 23.0423L3.60021 22.8498ZM3.10213 23.251L3.25747 23.4469H3.25747L3.10213 23.251ZM2.50429 23.7443L2.6714 23.9303L2.67146 23.9302L2.50429 23.7443ZM2.50416 23.7445L2.33705 23.5585L2.33704 23.5585L2.50416 23.7445ZM2.18397 24.0962L2.3945 24.231H2.3945L2.18397 24.0962ZM2.10377 24.3808L1.8599 24.4358L1.86201 24.4452L1.86483 24.4543L2.10377 24.3808ZM2.1084 24.3959L1.86946 24.4694L1.89653 24.5574L1.97418 24.6068L2.1084 24.3959ZM2.11537 24.4003L1.98099 24.6115L1.99181 24.6176L2.11537 24.4003ZM4.13879 24.7054L4.12134 24.456H4.12134L4.13879 24.7054ZM6.78001 24.2056L6.71469 23.9643L6.71341 23.9646L6.78001 24.2056ZM6.78014 24.2056L6.84546 24.4469L6.84667 24.4466L6.78014 24.2056ZM11.0956 22.6329L11.196 22.8619H11.196L11.0956 22.6329ZM11.2421 22.5687L11.2932 22.3239L11.2149 22.3076L11.1417 22.3397L11.2421 22.5687ZM11.3987 22.6014L11.3475 22.8461L11.3475 22.8461L11.3987 22.6014ZM4.54323 20.1141L4.77318 20.2122L4.81602 20.1118L4.77149 20.0121L4.54323 20.1141ZM2.96241 22.0796L3.12181 22.2722L3.12207 22.272L2.96241 22.0796ZM2.52122 22.435L2.36561 22.2394H2.36561L2.52122 22.435ZM1.83571 23.0007L1.65337 22.8297L2.00288 23.1866L1.83571 23.0007ZM6.34869 19.115L6.18679 19.3055L6.19259 19.3104L6.19869 19.315L6.34869 19.115ZM6.5871 19.2938L6.4371 19.4938L6.4371 19.4938L6.5871 19.2938ZM6.85269 19.493L7.09523 19.5536L7.13549 19.3926L7.00269 19.293L6.85269 19.493ZM6.77217 19.8151L7.01471 19.8757L7.01471 19.8757L6.77217 19.8151ZM6.69446 20.1259L6.45192 20.0653L6.45165 20.0664L6.69446 20.1259ZM6.69417 20.1271L6.93697 20.1867L6.93697 20.1867L6.69417 20.1271ZM4.24254 23.6165L4.05013 23.7761L4.20895 23.9676L4.40119 23.8097L4.24254 23.6165ZM3.9233 23.2317L4.11543 23.0718L3.73089 23.3913L3.9233 23.2317ZM4.2432 23.616L4.40377 23.8076L4.59477 23.6475L4.43533 23.456L4.2432 23.616ZM4.07675 23.7035L4.09395 23.9529L4.09402 23.9529L4.07675 23.7035ZM3.26504 23.5987L3.32947 23.3571L3.32946 23.3571L3.26504 23.5987ZM3.05706 23.5447L3.11705 23.302L2.87435 23.242L2.81436 23.4847L3.05706 23.5447ZM2.93707 24.0301L2.69438 23.9701L2.66346 24.0951L2.74736 24.1929L2.93707 24.0301ZM3.26271 24.4095L3.07301 24.5723L3.23583 24.762L3.42554 24.5992L3.26271 24.4095ZM3.68521 24.0666L3.52982 23.8707L3.52981 23.8708L3.68521 24.0666ZM3.69116 24.0619L3.84655 24.2577L3.84656 24.2577L3.69116 24.0619ZM4.07987 23.7505L4.32927 23.7332L4.29595 23.2519L3.92195 23.5566L4.07987 23.7505ZM4.11115 24.2023L3.86175 24.2195L4.36056 24.1851L4.11115 24.2023ZM4.07998 23.7504L3.92206 23.5566L3.82166 23.6384L3.83057 23.7676L4.07998 23.7504ZM6.64715 23.717L6.40614 23.7834L6.88818 23.6506L6.64715 23.717ZM6.51443 23.2349L6.75546 23.1686L6.68789 22.9232L6.44375 22.9951L6.51443 23.2349ZM10.7875 21.6988L10.6661 21.4803L10.4476 21.6017L10.569 21.8202L10.7875 21.6988ZM11.0304 22.1359L10.8118 22.2573L11.2591 22.0349L11.0304 22.1359ZM10.8284 21.6785L11.0571 21.5775L10.9561 21.3488L10.7274 21.4498L10.8284 21.6785ZM10.9284 21.6206L10.807 21.402L10.9284 21.6206ZM11.1064 21.5217L11.1722 21.2805L11.074 21.2537L10.985 21.3031L11.1064 21.5217ZM11.3028 21.5752L11.237 21.8164H11.237L11.3028 21.5752ZM11.4515 21.6164L11.5054 21.3723L11.2613 21.3183L11.2074 21.5624L11.4515 21.6164ZM11.3435 22.1046L11.0994 22.0506L11.5847 22.1704L11.3435 22.1046ZM11.475 21.6222L11.7162 21.688L11.782 21.4468L11.5408 21.381L11.475 21.6222ZM11.2355 22.5928L11.1813 22.8369L11.1815 22.8369L11.2355 22.5928ZM11.2341 22.5925L11.2883 22.3484L11.2081 22.3307L11.1331 22.3638L11.2341 22.5925ZM11.2323 22.5933L11.3333 22.822L11.3334 22.8219L11.2323 22.5933ZM6.78002 24.199L6.84443 24.4406L6.84645 24.44L6.78002 24.199ZM6.77988 24.1991L6.71546 23.9575L6.71352 23.958L6.77988 24.1991ZM4.14568 24.7011L4.12841 24.4517L4.1274 24.4517L4.14568 24.7011ZM4.14555 24.7011L4.16275 24.9505L4.16383 24.9504L4.14555 24.7011ZM2.97224 24.5565L3.0379 24.3153H3.0379L2.97224 24.5565ZM2.81709 24.5155L2.87708 24.2728H2.87708L2.81709 24.5155ZM1.87511 24.2826L1.71229 24.0929L1.34413 24.4089L1.81512 24.5253L1.87511 24.2826ZM2.61143 23.6507L2.77425 23.8404H2.77425L2.61143 23.6507ZM3.06238 23.2842L2.90717 23.0882L2.90698 23.0884L3.06238 23.2842ZM3.06362 23.2832L3.21883 23.4792L3.21903 23.4791L3.06362 23.2832ZM3.06689 23.2807L2.91149 23.0848L2.91147 23.0848L3.06689 23.2807ZM3.60339 22.8474L3.44355 22.6552L3.44344 22.6553L3.60339 22.8474ZM3.60405 22.8469L3.44443 22.6545L3.44421 22.6547L3.60405 22.8469ZM5.7216 19.8944L5.96432 19.9543L6.00146 19.8039L5.88323 19.7037L5.7216 19.8944ZM5.71336 19.8874L5.55172 20.0781L5.55174 20.0781L5.71336 19.8874ZM14.0359 0.346436C6.809 0.346436 0.762451 5.54733 0.762451 12.211H1.26245C1.26245 5.87965 7.02539 0.846436 14.0359 0.846436V0.346436ZM27.2625 12.2736C27.2625 5.62065 21.2746 0.346436 14.0359 0.346436V0.846436C21.0516 0.846436 26.7625 5.9471 26.7625 12.2736H27.2625ZM13.989 24.1382C21.2159 24.1382 27.2625 18.9373 27.2625 12.2736H26.7625C26.7625 18.605 20.9995 23.6382 13.989 23.6382V24.1382ZM11.3026 23.8575C12.1707 24.0306 13.0563 24.1382 13.989 24.1382V23.6382C13.0954 23.6382 12.2431 23.5352 11.4003 23.3672L11.3026 23.8575ZM7.11293 25.4105C8.8699 24.9254 10.516 24.2479 11.4511 23.8416L11.2518 23.3831C10.3247 23.7859 8.70345 24.4526 6.97986 24.9285L7.11293 25.4105ZM4.22605 25.9523C5.16258 25.8868 6.1612 25.6735 7.11299 25.4104L6.9798 24.9285C6.0442 25.1871 5.08123 25.3912 4.19114 25.4535L4.22605 25.9523ZM1.48262 25.4784C2.32454 25.9631 3.31273 26.0162 4.22605 25.9523L4.19114 25.4535C3.30886 25.5153 2.44327 25.4545 1.73211 25.0451L1.48262 25.4784ZM1.473 25.4729L1.48261 25.4784L1.73212 25.0451L1.72252 25.0396L1.473 25.4729ZM1.45418 25.4612L1.46353 25.4671L1.73198 25.0453L1.72263 25.0394L1.45418 25.4612ZM1.28199 25.3516L1.45419 25.4612L1.72263 25.0394L1.55043 24.9298L1.28199 25.3516ZM1.12668 25.2528L1.28199 25.3516L1.55043 24.9298L1.39512 24.8309L1.12668 25.2528ZM0.967815 24.9394L1.02195 25.1154L1.49984 24.9683L1.4457 24.7924L0.967815 24.9394ZM0.905197 24.7359L0.967815 24.9394L1.4457 24.7924L1.38309 24.5889L0.905197 24.7359ZM0.902274 24.7264L0.905196 24.7359L1.38309 24.5889L1.38017 24.5794L0.902274 24.7264ZM0.897004 24.7073L0.899546 24.7169L1.3829 24.5889L1.38035 24.5793L0.897004 24.7073ZM1.13135 23.4221C0.969391 23.6749 0.748847 24.1476 0.897003 24.7073L1.38036 24.5793C1.28413 24.2158 1.42363 23.8928 1.5524 23.6917L1.13135 23.4221ZM1.66847 22.8149C1.49833 22.9678 1.29775 23.1622 1.13135 23.4221L1.5524 23.6917C1.68225 23.489 1.84308 23.3302 2.0027 23.1868L1.66847 22.8149ZM2.08486 22.9818L1.26173 12.192L0.763175 12.23L1.58631 23.0198L2.08486 22.9818ZM2.26245 12.211C2.26245 6.54233 7.46041 1.84644 14.0359 1.84644V1.34644C7.24249 1.34644 1.76245 6.21136 1.76245 12.211H2.26245ZM5.63189 19.4195C3.5389 17.5252 2.26245 14.9988 2.26245 12.211H1.76245C1.76245 15.1597 3.11411 17.8151 5.29637 19.7902L5.63189 19.4195ZM5.87171 19.6366L5.63189 19.4195L5.29637 19.7902L5.53619 20.0073L5.87171 19.6366ZM5.84211 20.2067L5.94179 19.899L5.46612 19.7449L5.36644 20.0526L5.84211 20.2067ZM3.76036 23.0418C4.56612 22.3731 5.44199 21.442 5.84211 20.2067L5.36644 20.0526C5.00869 21.1571 4.21579 22.0141 3.44105 22.657L3.76036 23.0418ZM3.75974 23.0423L3.76023 23.0419L3.44117 22.6569L3.44068 22.6573L3.75974 23.0423ZM3.25747 23.4469C3.40991 23.326 3.57668 23.1938 3.75962 23.0424L3.4408 22.6572C3.26243 22.8049 3.09951 22.9341 2.9468 23.0552L3.25747 23.4469ZM2.67146 23.9302C2.84532 23.7739 3.03463 23.6236 3.25747 23.4469L2.9468 23.0552C2.72663 23.2297 2.52462 23.3898 2.33711 23.5585L2.67146 23.9302ZM2.67127 23.9304L2.6714 23.9303L2.33718 23.5584L2.33705 23.5585L2.67127 23.9304ZM2.3945 24.231C2.45103 24.1428 2.53202 24.0555 2.67127 23.9304L2.33704 23.5585C2.18776 23.6927 2.06672 23.8157 1.97345 23.9614L2.3945 24.231ZM2.34764 24.3258C2.35034 24.3378 2.34679 24.3376 2.35137 24.3202C2.35596 24.3029 2.36758 24.2731 2.3945 24.231L1.97345 23.9614C1.88023 24.1069 1.82331 24.2737 1.8599 24.4358L2.34764 24.3258ZM2.34734 24.3223L2.34272 24.3073L1.86483 24.4543L1.86946 24.4694L2.34734 24.3223ZM2.24959 24.1894L2.24262 24.1849L1.97418 24.6068L1.98115 24.6112L2.24959 24.1894ZM4.12134 24.456C3.30569 24.513 2.68785 24.4382 2.23893 24.183L1.99181 24.6176C2.57063 24.9467 3.30981 25.014 4.15624 24.9548L4.12134 24.456ZM6.71341 23.9646C5.81015 24.2143 4.91852 24.4002 4.12134 24.456L4.15624 24.9548C4.99988 24.8957 5.92718 24.7007 6.84661 24.4466L6.71341 23.9646ZM6.71482 23.9643L6.71469 23.9643L6.84533 24.4469L6.84546 24.4469L6.71482 23.9643ZM10.9952 22.404C10.1133 22.7907 8.46156 23.482 6.7136 23.9646L6.84667 24.4466C8.62949 23.9543 10.3072 23.2517 11.196 22.8619L10.9952 22.404ZM11.1417 22.3397L10.9952 22.404L11.196 22.8619L11.3425 22.7976L11.1417 22.3397ZM11.4498 22.3567L11.2932 22.3239L11.191 22.8134L11.3475 22.8461L11.4498 22.3567ZM13.989 22.6382C13.1238 22.6382 12.2917 22.5325 11.4498 22.3566L11.3475 22.8461C12.2152 23.0273 13.0822 23.1382 13.989 23.1382V22.6382ZM25.7625 12.2736C25.7625 17.9423 20.5645 22.6382 13.989 22.6382V23.1382C20.7824 23.1382 26.2625 18.2733 26.2625 12.2736H25.7625ZM14.0359 1.84644C20.6037 1.84644 25.7625 6.59823 25.7625 12.2736H26.2625C26.2625 6.27299 20.828 1.34644 14.0359 1.34644V1.84644ZM0.762451 12.211C0.762451 15.3622 2.15714 18.1822 4.37062 20.2949L4.71585 19.9332C2.58729 17.9016 1.26245 15.2074 1.26245 12.211H0.762451ZM0.784195 12.313L4.31498 20.2161L4.77149 20.0121L1.24071 12.1091L0.784195 12.313ZM4.31328 20.016C4.00384 20.7414 3.43651 21.3612 2.80274 21.8872L3.12207 22.272C3.785 21.7218 4.41952 21.0412 4.77318 20.2122L4.31328 20.016ZM2.803 21.887C2.66351 22.0025 2.51521 22.1204 2.36561 22.2394L2.67682 22.6307C2.82566 22.5124 2.97788 22.3913 3.12181 22.2722L2.803 21.887ZM2.36561 22.2394C2.12175 22.4333 1.87254 22.6314 1.66854 22.8148L2.00288 23.1866C2.19332 23.0153 2.42958 22.8273 2.67682 22.6307L2.36561 22.2394ZM2.01805 23.1717L4.72558 20.2851L4.36089 19.943L1.65337 22.8297L2.01805 23.1717ZM3.2644 12.211C3.2644 7.1547 7.93586 2.84833 14.036 2.84833V2.34833C7.71926 2.34833 2.7644 6.82256 2.7644 12.211H3.2644ZM6.51058 18.9245C4.45943 17.1813 3.2644 14.8117 3.2644 12.211H2.7644C2.7644 14.9739 4.03624 17.4778 6.18679 19.3055L6.51058 18.9245ZM6.7371 19.0938L6.49869 18.915L6.19869 19.315L6.4371 19.4938L6.7371 19.0938ZM7.00269 19.293L6.7371 19.0938L6.4371 19.4938L6.70269 19.693L7.00269 19.293ZM7.01471 19.8757L7.09523 19.5536L6.61016 19.4324L6.52964 19.7545L7.01471 19.8757ZM6.93699 20.1866L7.01471 19.8757L6.52964 19.7544L6.45192 20.0653L6.93699 20.1866ZM6.93697 20.1867C6.93697 20.1867 6.93697 20.1867 6.93697 20.1867C6.93697 20.1867 6.93697 20.1867 6.93697 20.1867C6.93697 20.1867 6.93697 20.1867 6.93697 20.1867C6.93697 20.1867 6.93698 20.1867 6.93698 20.1867L6.93698 20.1867C6.93698 20.1867 6.93698 20.1867 6.93698 20.1867C6.93698 20.1866 6.93698 20.1866 6.93698 20.1866C6.93698 20.1866 6.93698 20.1866 6.93698 20.1866L6.93698 20.1866L6.93698 20.1866C6.93698 20.1866 6.93698 20.1866 6.93698 20.1866C6.93698 20.1866 6.93698 20.1866 6.93698 20.1866C6.93698 20.1866 6.93698 20.1866 6.93698 20.1866L6.93698 20.1866C6.93698 20.1866 6.93698 20.1866 6.93698 20.1866C6.93698 20.1866 6.93698 20.1866 6.93698 20.1866C6.93698 20.1866 6.93698 20.1866 6.93698 20.1866C6.93698 20.1866 6.93698 20.1866 6.93698 20.1866L6.93698 20.1866C6.93698 20.1866 6.93698 20.1866 6.93698 20.1866C6.93698 20.1866 6.93698 20.1866 6.93698 20.1866C6.93699 20.1866 6.93699 20.1866 6.93699 20.1866C6.93699 20.1866 6.93699 20.1866 6.93699 20.1866C6.93699 20.1866 6.93699 20.1866 6.93699 20.1866C6.93699 20.1866 6.93699 20.1866 6.93699 20.1866C6.93699 20.1866 6.93699 20.1866 6.93699 20.1866C6.93699 20.1866 6.93699 20.1866 6.93699 20.1866C6.93699 20.1866 6.93699 20.1866 6.93699 20.1866C6.93699 20.1866 6.93699 20.1866 6.93699 20.1866C6.93699 20.1866 6.93699 20.1866 6.93699 20.1866C6.93699 20.1866 6.93699 20.1866 6.93699 20.1866C6.93699 20.1866 6.93699 20.1866 6.93699 20.1866C6.93699 20.1866 6.93699 20.1866 6.93699 20.1866C6.93699 20.1866 6.93699 20.1866 6.93699 20.1866C6.93699 20.1866 6.93699 20.1866 6.93699 20.1866C6.93699 20.1866 6.93699 20.1866 6.93699 20.1866C6.93699 20.1866 6.93699 20.1866 6.93699 20.1866C6.93699 20.1866 6.93699 20.1866 6.93699 20.1866C6.93699 20.1866 6.937 20.1866 6.937 20.1866L6.937 20.1866C6.937 20.1866 6.937 20.1866 6.937 20.1866C6.937 20.1866 6.937 20.1866 6.937 20.1866C6.937 20.1866 6.937 20.1866 6.937 20.1866C6.937 20.1866 6.937 20.1866 6.937 20.1866L6.937 20.1866C6.937 20.1866 6.937 20.1866 6.937 20.1866C6.937 20.1866 6.937 20.1866 6.937 20.1866C6.937 20.1866 6.937 20.1866 6.937 20.1866L6.937 20.1866L6.937 20.1865C6.937 20.1865 6.937 20.1865 6.937 20.1865C6.937 20.1865 6.937 20.1865 6.937 20.1865C6.937 20.1865 6.937 20.1865 6.937 20.1865L6.937 20.1865L6.937 20.1865C6.937 20.1865 6.937 20.1865 6.937 20.1865C6.93701 20.1865 6.93701 20.1865 6.93701 20.1865C6.93701 20.1865 6.93701 20.1865 6.93701 20.1865L6.93701 20.1865C6.93701 20.1865 6.93701 20.1865 6.93701 20.1865C6.93701 20.1865 6.93701 20.1865 6.93701 20.1865C6.93701 20.1865 6.93701 20.1865 6.93701 20.1865C6.93701 20.1865 6.93701 20.1865 6.93701 20.1865C6.93701 20.1865 6.93701 20.1865 6.93701 20.1865C6.93701 20.1865 6.93701 20.1865 6.93701 20.1865C6.93701 20.1865 6.93701 20.1865 6.93701 20.1865C6.93701 20.1865 6.93701 20.1865 6.93701 20.1865C6.93701 20.1865 6.93701 20.1865 6.93701 20.1865C6.93701 20.1865 6.93701 20.1865 6.93701 20.1865C6.93701 20.1865 6.93701 20.1865 6.93701 20.1865C6.93701 20.1865 6.93701 20.1865 6.93701 20.1865C6.93701 20.1865 6.93701 20.1865 6.93701 20.1865C6.93701 20.1865 6.93701 20.1865 6.93701 20.1865C6.93701 20.1865 6.93702 20.1865 6.93702 20.1865C6.93702 20.1865 6.93702 20.1865 6.93702 20.1865C6.93702 20.1865 6.93702 20.1865 6.93702 20.1865C6.93702 20.1865 6.93702 20.1865 6.93702 20.1865C6.93702 20.1865 6.93702 20.1865 6.93702 20.1865C6.93702 20.1865 6.93702 20.1865 6.93702 20.1865L6.93702 20.1865C6.93702 20.1865 6.93702 20.1865 6.93702 20.1865C6.93702 20.1865 6.93702 20.1865 6.93702 20.1865C6.93702 20.1865 6.93702 20.1865 6.93702 20.1865C6.93702 20.1865 6.93702 20.1865 6.93702 20.1865L6.93702 20.1865C6.93702 20.1865 6.93702 20.1865 6.93702 20.1865C6.93702 20.1865 6.93702 20.1865 6.93702 20.1865C6.93702 20.1865 6.93702 20.1865 6.93702 20.1865L6.93702 20.1865L6.93702 20.1865C6.93702 20.1865 6.93702 20.1865 6.93702 20.1865C6.93703 20.1865 6.93703 20.1865 6.93703 20.1864C6.93703 20.1864 6.93703 20.1864 6.93703 20.1864L6.93703 20.1864L6.93703 20.1864C6.93703 20.1864 6.93703 20.1864 6.93703 20.1864C6.93703 20.1864 6.93703 20.1864 6.93703 20.1864C6.93703 20.1864 6.93703 20.1864 6.93703 20.1864L6.93703 20.1864C6.93703 20.1864 6.93703 20.1864 6.93703 20.1864C6.93703 20.1864 6.93703 20.1864 6.93703 20.1864C6.93703 20.1864 6.93703 20.1864 6.93703 20.1864C6.93703 20.1864 6.93703 20.1864 6.93703 20.1864C6.93703 20.1864 6.93703 20.1864 6.93703 20.1864C6.93703 20.1864 6.93703 20.1864 6.93703 20.1864C6.93703 20.1864 6.93703 20.1864 6.93703 20.1864C6.93703 20.1864 6.93703 20.1864 6.93703 20.1864C6.93703 20.1864 6.93703 20.1864 6.93703 20.1864C6.93703 20.1864 6.93704 20.1864 6.93704 20.1864C6.93704 20.1864 6.93704 20.1864 6.93704 20.1864C6.93704 20.1864 6.93704 20.1864 6.93704 20.1864C6.93704 20.1864 6.93704 20.1864 6.93704 20.1864C6.93704 20.1864 6.93704 20.1864 6.93704 20.1864C6.93704 20.1864 6.93704 20.1864 6.93704 20.1864C6.93704 20.1864 6.93704 20.1864 6.93704 20.1864C6.93704 20.1864 6.93704 20.1864 6.93704 20.1864C6.93704 20.1864 6.93704 20.1864 6.93704 20.1864C6.93704 20.1864 6.93704 20.1864 6.93704 20.1864C6.93704 20.1864 6.93704 20.1864 6.93704 20.1864C6.93704 20.1864 6.93704 20.1864 6.93704 20.1864C6.93704 20.1864 6.93704 20.1864 6.93704 20.1864C6.93704 20.1864 6.93704 20.1864 6.93704 20.1864C6.93704 20.1864 6.93704 20.1864 6.93704 20.1864C6.93704 20.1864 6.93704 20.1864 6.93704 20.1864C6.93704 20.1864 6.93704 20.1864 6.93704 20.1864C6.93704 20.1864 6.93704 20.1864 6.93705 20.1864C6.93705 20.1864 6.93705 20.1864 6.93705 20.1864C6.93705 20.1864 6.93705 20.1864 6.93705 20.1864L6.93705 20.1864C6.93705 20.1864 6.93705 20.1864 6.93705 20.1864C6.93705 20.1864 6.93705 20.1864 6.93705 20.1864C6.93705 20.1864 6.93705 20.1864 6.93705 20.1864C6.93705 20.1864 6.93705 20.1864 6.93705 20.1864L6.93705 20.1864C6.93705 20.1864 6.93705 20.1863 6.93705 20.1863C6.93705 20.1863 6.93705 20.1863 6.93705 20.1863C6.93705 20.1863 6.93705 20.1863 6.93705 20.1863L6.93705 20.1863L6.93705 20.1863C6.93705 20.1863 6.93705 20.1863 6.93705 20.1863C6.93705 20.1863 6.93705 20.1863 6.93705 20.1863C6.93705 20.1863 6.93705 20.1863 6.93705 20.1863L6.93705 20.1863L6.93706 20.1863C6.93706 20.1863 6.93706 20.1863 6.93706 20.1863C6.93706 20.1863 6.93706 20.1863 6.93706 20.1863C6.93706 20.1863 6.93706 20.1863 6.93706 20.1863L6.93706 20.1863C6.93706 20.1863 6.93706 20.1863 6.93706 20.1863C6.93706 20.1863 6.93706 20.1863 6.93706 20.1863C6.93706 20.1863 6.93706 20.1863 6.93706 20.1863C6.93706 20.1863 6.93706 20.1863 6.93706 20.1863C6.93706 20.1863 6.93706 20.1863 6.93706 20.1863C6.93706 20.1863 6.93706 20.1863 6.93706 20.1863C6.93706 20.1863 6.93706 20.1863 6.93706 20.1863C6.93706 20.1863 6.93706 20.1863 6.93706 20.1863C6.93706 20.1863 6.93706 20.1863 6.93706 20.1863C6.93706 20.1863 6.93706 20.1863 6.93706 20.1863C6.93706 20.1863 6.93706 20.1863 6.93706 20.1863C6.93706 20.1863 6.93706 20.1863 6.93706 20.1863C6.93706 20.1863 6.93706 20.1863 6.93707 20.1863C6.93707 20.1863 6.93707 20.1863 6.93707 20.1863C6.93707 20.1863 6.93707 20.1863 6.93707 20.1863C6.93707 20.1863 6.93707 20.1863 6.93707 20.1863C6.93707 20.1863 6.93707 20.1863 6.93707 20.1863C6.93707 20.1863 6.93707 20.1863 6.93707 20.1863C6.93707 20.1863 6.93707 20.1863 6.93707 20.1863C6.93707 20.1863 6.93707 20.1863 6.93707 20.1863L6.93707 20.1863C6.93707 20.1863 6.93707 20.1863 6.93707 20.1863C6.93707 20.1863 6.93707 20.1863 6.93707 20.1863C6.93707 20.1863 6.93707 20.1863 6.93707 20.1863C6.93707 20.1863 6.93707 20.1863 6.93707 20.1863L6.93707 20.1863C6.93707 20.1863 6.93707 20.1863 6.93707 20.1863C6.93707 20.1863 6.93707 20.1863 6.93707 20.1863C6.93707 20.1863 6.93707 20.1863 6.93707 20.1863L6.93707 20.1862L6.93708 20.1862C6.93708 20.1862 6.93708 20.1862 6.93708 20.1862C6.93708 20.1862 6.93708 20.1862 6.93708 20.1862C6.93708 20.1862 6.93708 20.1862 6.93708 20.1862L6.93708 20.1862L6.93708 20.1862C6.93708 20.1862 6.93708 20.1862 6.93708 20.1862C6.93708 20.1862 6.93708 20.1862 6.93708 20.1862C6.93708 20.1862 6.93708 20.1862 6.93708 20.1862L6.93708 20.1862C6.93708 20.1862 6.93708 20.1862 6.93708 20.1862C6.93708 20.1862 6.93708 20.1862 6.93708 20.1862C6.93708 20.1862 6.93708 20.1862 6.93708 20.1862C6.93708 20.1862 6.93708 20.1862 6.93708 20.1862L6.93708 20.1862C6.93708 20.1862 6.93708 20.1862 6.93708 20.1862C6.93708 20.1862 6.93708 20.1862 6.93708 20.1862C6.93708 20.1862 6.93708 20.1862 6.93709 20.1862C6.93709 20.1862 6.93709 20.1862 6.93709 20.1862C6.93709 20.1862 6.93709 20.1862 6.93709 20.1862C6.93709 20.1862 6.93709 20.1862 6.93709 20.1862C6.93709 20.1862 6.93709 20.1862 6.93709 20.1862C6.93709 20.1862 6.93709 20.1862 6.93709 20.1862C6.93709 20.1862 6.93709 20.1862 6.93709 20.1862C6.93709 20.1862 6.93709 20.1862 6.93709 20.1862C6.93709 20.1862 6.93709 20.1862 6.93709 20.1862C6.93709 20.1862 6.93709 20.1862 6.93709 20.1862C6.93709 20.1862 6.93709 20.1862 6.93709 20.1862C6.93709 20.1862 6.93709 20.1862 6.93709 20.1862C6.93709 20.1862 6.93709 20.1862 6.93709 20.1862C6.93709 20.1862 6.93709 20.1862 6.93709 20.1862C6.93709 20.1862 6.93709 20.1862 6.93709 20.1862C6.93709 20.1862 6.93709 20.1862 6.93709 20.1862C6.93709 20.1862 6.93709 20.1862 6.93709 20.1862C6.93709 20.1862 6.93709 20.1862 6.93709 20.1862L6.9371 20.1862C6.9371 20.1862 6.9371 20.1862 6.9371 20.1862C6.9371 20.1862 6.9371 20.1862 6.9371 20.1862C6.9371 20.1862 6.9371 20.1862 6.9371 20.1862L6.9371 20.1862L6.9371 20.1862C6.9371 20.1862 6.9371 20.1862 6.9371 20.1862C6.9371 20.1861 6.9371 20.1861 6.9371 20.1861C6.9371 20.1861 6.9371 20.1861 6.9371 20.1861L6.9371 20.1861L6.9371 20.1861C6.9371 20.1861 6.9371 20.1861 6.9371 20.1861C6.9371 20.1861 6.9371 20.1861 6.9371 20.1861C6.9371 20.1861 6.9371 20.1861 6.9371 20.1861L6.9371 20.1861C6.9371 20.1861 6.9371 20.1861 6.9371 20.1861C6.9371 20.1861 6.9371 20.1861 6.9371 20.1861C6.9371 20.1861 6.9371 20.1861 6.93711 20.1861C6.93711 20.1861 6.93711 20.1861 6.93711 20.1861L6.93711 20.1861C6.93711 20.1861 6.93711 20.1861 6.93711 20.1861C6.93711 20.1861 6.93711 20.1861 6.93711 20.1861C6.93711 20.1861 6.93711 20.1861 6.93711 20.1861C6.93711 20.1861 6.93711 20.1861 6.93711 20.1861C6.93711 20.1861 6.93711 20.1861 6.93711 20.1861C6.93711 20.1861 6.93711 20.1861 6.93711 20.1861C6.93711 20.1861 6.93711 20.1861 6.93711 20.1861C6.93711 20.1861 6.93711 20.1861 6.93711 20.1861C6.93711 20.1861 6.93711 20.1861 6.93711 20.1861C6.93711 20.1861 6.93711 20.1861 6.93711 20.1861C6.93711 20.1861 6.93711 20.1861 6.93711 20.1861C6.93711 20.1861 6.93711 20.1861 6.93711 20.1861C6.93711 20.1861 6.93711 20.1861 6.93711 20.1861C6.93711 20.1861 6.93711 20.1861 6.93711 20.1861C6.93711 20.1861 6.93711 20.1861 6.93711 20.1861C6.93711 20.1861 6.93712 20.1861 6.93712 20.1861C6.93712 20.1861 6.93712 20.1861 6.93712 20.1861C6.93712 20.1861 6.93712 20.1861 6.93712 20.1861C6.93712 20.1861 6.93712 20.1861 6.93712 20.1861C6.93712 20.1861 6.93712 20.1861 6.93712 20.1861L6.93712 20.1861C6.93712 20.1861 6.93712 20.1861 6.93712 20.1861C6.93712 20.1861 6.93712 20.1861 6.93712 20.1861C6.93712 20.1861 6.93712 20.1861 6.93712 20.1861C6.93712 20.1861 6.93712 20.1861 6.93712 20.1861L6.93712 20.1861C6.93712 20.1861 6.93712 20.1861 6.93712 20.1861C6.93712 20.1861 6.93712 20.1861 6.93712 20.1861C6.93712 20.1861 6.93712 20.1861 6.93712 20.1861L6.93712 20.1861L6.93712 20.186C6.93712 20.186 6.93712 20.186 6.93712 20.186C6.93712 20.186 6.93712 20.186 6.93713 20.186C6.93713 20.186 6.93713 20.186 6.93713 20.186L6.93713 20.186C6.93713 20.186 6.93713 20.186 6.93713 20.186C6.93713 20.186 6.93713 20.186 6.93713 20.186C6.93713 20.186 6.93713 20.186 6.93713 20.186C6.93713 20.186 6.93713 20.186 6.93713 20.186L6.93713 20.186C6.93713 20.186 6.93713 20.186 6.93713 20.186C6.93713 20.186 6.93713 20.186 6.93713 20.186C6.93713 20.186 6.93713 20.186 6.93713 20.186C6.93713 20.186 6.93713 20.186 6.93713 20.186C6.93713 20.186 6.93713 20.186 6.93713 20.186C6.93713 20.186 6.93713 20.186 6.93713 20.186C6.93713 20.186 6.93713 20.186 6.93713 20.186C6.93713 20.186 6.93713 20.186 6.93713 20.186C6.93713 20.186 6.93713 20.186 6.93713 20.186C6.93713 20.186 6.93713 20.186 6.93713 20.186C6.93713 20.186 6.93714 20.186 6.93714 20.186C6.93714 20.186 6.93714 20.186 6.93714 20.186C6.93714 20.186 6.93714 20.186 6.93714 20.186C6.93714 20.186 6.93714 20.186 6.93714 20.186C6.93714 20.186 6.93714 20.186 6.93714 20.186C6.93714 20.186 6.93714 20.186 6.93714 20.186C6.93714 20.186 6.93714 20.186 6.93714 20.186C6.93714 20.186 6.93714 20.186 6.93714 20.186C6.93714 20.186 6.93714 20.186 6.93714 20.186C6.93714 20.186 6.93714 20.186 6.93714 20.186C6.93714 20.186 6.93714 20.186 6.93714 20.186C6.93714 20.186 6.93714 20.186 6.93714 20.186C6.93714 20.186 6.93714 20.186 6.93714 20.186C6.93714 20.186 6.93714 20.186 6.93714 20.186C6.93714 20.186 6.93714 20.186 6.93714 20.186C6.93714 20.186 6.93714 20.186 6.93714 20.186C6.93714 20.186 6.93714 20.186 6.93714 20.186C6.93714 20.186 6.93714 20.186 6.93715 20.186C6.93715 20.186 6.93715 20.186 6.93715 20.186L6.93715 20.186C6.93715 20.186 6.93715 20.186 6.93715 20.186C6.93715 20.186 6.93715 20.186 6.93715 20.186C6.93715 20.186 6.93715 20.186 6.93715 20.1859L6.93715 20.1859L6.93715 20.1859C6.93715 20.1859 6.93715 20.1859 6.93715 20.1859C6.93715 20.1859 6.93715 20.1859 6.93715 20.1859C6.93715 20.1859 6.93715 20.1859 6.93715 20.1859L6.93715 20.1859L6.93715 20.1859C6.93715 20.1859 6.93715 20.1859 6.93715 20.1859C6.93715 20.1859 6.93715 20.1859 6.93715 20.1859C6.93715 20.1859 6.93715 20.1859 6.93715 20.1859L6.93715 20.1859C6.93715 20.1859 6.93715 20.1859 6.93715 20.1859C6.93716 20.1859 6.93716 20.1859 6.93716 20.1859C6.93716 20.1859 6.93716 20.1859 6.93716 20.1859C6.93716 20.1859 6.93716 20.1859 6.93716 20.1859L6.93716 20.1859C6.93716 20.1859 6.93716 20.1859 6.93716 20.1859C6.93716 20.1859 6.93716 20.1859 6.93716 20.1859C6.93716 20.1859 6.93716 20.1859 6.93716 20.1859C6.93716 20.1859 6.93716 20.1859 6.93716 20.1859C6.93716 20.1859 6.93716 20.1859 6.93716 20.1859C6.93716 20.1859 6.93716 20.1859 6.93716 20.1859C6.93716 20.1859 6.93716 20.1859 6.93716 20.1859C6.93716 20.1859 6.93716 20.1859 6.93716 20.1859C6.93716 20.1859 6.93716 20.1859 6.93716 20.1859C6.93716 20.1859 6.93716 20.1859 6.93716 20.1859C6.93716 20.1859 6.93716 20.1859 6.93716 20.1859C6.93716 20.1859 6.93716 20.1859 6.93716 20.1859C6.93716 20.1859 6.93716 20.1859 6.93716 20.1859C6.93716 20.1859 6.93716 20.1859 6.93717 20.1859C6.93717 20.1859 6.93717 20.1859 6.93717 20.1859C6.93717 20.1859 6.93717 20.1859 6.93717 20.1859C6.93717 20.1859 6.93717 20.1859 6.93717 20.1859C6.93717 20.1859 6.93717 20.1859 6.93717 20.1859C6.93717 20.1859 6.93717 20.1859 6.93717 20.1859C6.93717 20.1859 6.93717 20.1859 6.93717 20.1859L6.93717 20.1859C6.93717 20.1859 6.93717 20.1859 6.93717 20.1859C6.93717 20.1859 6.93717 20.1859 6.93717 20.1859C6.93717 20.1859 6.93717 20.1859 6.93717 20.1859C6.93717 20.1859 6.93717 20.1859 6.93717 20.1859L6.93717 20.1859C6.93717 20.1859 6.93717 20.1859 6.93717 20.1859C6.93717 20.1858 6.93717 20.1858 6.93717 20.1858C6.93717 20.1858 6.93717 20.1858 6.93717 20.1858L6.93717 20.1858L6.93717 20.1858C6.93718 20.1858 6.93718 20.1858 6.93718 20.1858C6.93718 20.1858 6.93718 20.1858 6.93718 20.1858C6.93718 20.1858 6.93718 20.1858 6.93718 20.1858L6.93718 20.1858C6.93718 20.1858 6.93718 20.1858 6.93718 20.1858C6.93718 20.1858 6.93718 20.1858 6.93718 20.1858C6.93718 20.1858 6.93718 20.1858 6.93718 20.1858C6.93718 20.1858 6.93718 20.1858 6.93718 20.1858L6.93718 20.1858C6.93718 20.1858 6.93718 20.1858 6.93718 20.1858C6.93718 20.1858 6.93718 20.1858 6.93718 20.1858C6.93718 20.1858 6.93718 20.1858 6.93718 20.1858C6.93718 20.1858 6.93718 20.1858 6.93718 20.1858C6.93718 20.1858 6.93718 20.1858 6.93718 20.1858C6.93718 20.1858 6.93718 20.1858 6.93718 20.1858C6.93718 20.1858 6.93718 20.1858 6.93718 20.1858C6.93718 20.1858 6.93718 20.1858 6.93718 20.1858C6.93718 20.1858 6.93718 20.1858 6.93719 20.1858C6.93719 20.1858 6.93719 20.1858 6.93719 20.1858C6.93719 20.1858 6.93719 20.1858 6.93719 20.1858C6.93719 20.1858 6.93719 20.1858 6.93719 20.1858C6.93719 20.1858 6.93719 20.1858 6.93719 20.1858C6.93719 20.1858 6.93719 20.1858 6.93719 20.1858C6.93719 20.1858 6.93719 20.1858 6.93719 20.1858C6.93719 20.1858 6.93719 20.1858 6.93719 20.1858C6.93719 20.1858 6.93719 20.1858 6.93719 20.1858C6.93719 20.1858 6.93719 20.1858 6.93719 20.1858C6.93719 20.1858 6.93719 20.1858 6.93719 20.1858C6.93719 20.1858 6.93719 20.1858 6.93719 20.1858L6.93719 20.1858C6.93719 20.1858 6.93719 20.1858 6.93719 20.1858C6.93719 20.1858 6.93719 20.1858 6.93719 20.1858C6.93719 20.1858 6.93719 20.1858 6.93719 20.1858C6.93719 20.1858 6.93719 20.1858 6.93719 20.1858L6.93719 20.1858C6.9372 20.1858 6.9372 20.1858 6.9372 20.1858C6.9372 20.1858 6.9372 20.1858 6.9372 20.1858C6.9372 20.1858 6.9372 20.1858 6.9372 20.1858L6.9372 20.1857L6.9372 20.1857C6.9372 20.1857 6.9372 20.1857 6.9372 20.1857C6.9372 20.1857 6.9372 20.1857 6.9372 20.1857C6.9372 20.1857 6.9372 20.1857 6.9372 20.1857L6.9372 20.1857C6.9372 20.1857 6.9372 20.1857 6.9372 20.1857C6.9372 20.1857 6.9372 20.1857 6.9372 20.1857C6.9372 20.1857 6.9372 20.1857 6.9372 20.1857C6.9372 20.1857 6.9372 20.1857 6.9372 20.1857L6.9372 20.1857C6.9372 20.1857 6.9372 20.1857 6.9372 20.1857C6.9372 20.1857 6.9372 20.1857 6.9372 20.1857C6.9372 20.1857 6.9372 20.1857 6.9372 20.1857C6.9372 20.1857 6.9372 20.1857 6.93721 20.1857C6.93721 20.1857 6.93721 20.1857 6.93721 20.1857C6.93721 20.1857 6.93721 20.1857 6.93721 20.1857C6.93721 20.1857 6.93721 20.1857 6.93721 20.1857C6.93721 20.1857 6.93721 20.1857 6.93721 20.1857C6.93721 20.1857 6.93721 20.1857 6.93721 20.1857C6.93721 20.1857 6.93721 20.1857 6.93721 20.1857C6.93721 20.1857 6.93721 20.1857 6.93721 20.1857C6.93721 20.1857 6.93721 20.1857 6.93721 20.1857C6.93721 20.1857 6.93721 20.1857 6.93721 20.1857C6.93721 20.1857 6.93721 20.1857 6.93721 20.1857C6.93721 20.1857 6.93721 20.1857 6.93721 20.1857C6.93721 20.1857 6.93721 20.1857 6.93721 20.1857C6.93721 20.1857 6.93721 20.1857 6.93721 20.1857C6.93721 20.1857 6.93721 20.1857 6.93721 20.1857C6.93721 20.1857 6.93721 20.1857 6.93721 20.1857C6.93721 20.1857 6.93721 20.1857 6.93721 20.1857L6.93721 20.1857C6.93722 20.1857 6.93722 20.1857 6.93722 20.1857C6.93722 20.1857 6.93722 20.1857 6.93722 20.1857C6.93722 20.1857 6.93722 20.1857 6.93722 20.1857C6.93722 20.1857 6.93722 20.1857 6.93722 20.1857L6.93722 20.1857C6.93722 20.1857 6.93722 20.1857 6.93722 20.1857C6.93722 20.1857 6.93722 20.1857 6.93722 20.1857C6.93722 20.1857 6.93722 20.1857 6.93722 20.1857L6.93722 20.1857L6.93722 20.1857C6.93722 20.1857 6.93722 20.1857 6.93722 20.1857C6.93722 20.1856 6.93722 20.1856 6.93722 20.1856C6.93722 20.1856 6.93722 20.1856 6.93722 20.1856L6.93722 20.1856C6.93722 20.1856 6.93722 20.1856 6.93722 20.1856C6.93722 20.1856 6.93722 20.1856 6.93722 20.1856C6.93722 20.1856 6.93722 20.1856 6.93722 20.1856C6.93722 20.1856 6.93722 20.1856 6.93723 20.1856L6.93723 20.1856C6.93723 20.1856 6.93723 20.1856 6.93723 20.1856C6.93723 20.1856 6.93723 20.1856 6.93723 20.1856C6.93723 20.1856 6.93723 20.1856 6.93723 20.1856C6.93723 20.1856 6.93723 20.1856 6.93723 20.1856C6.93723 20.1856 6.93723 20.1856 6.93723 20.1856C6.93723 20.1856 6.93723 20.1856 6.93723 20.1856C6.93723 20.1856 6.93723 20.1856 6.93723 20.1856C6.93723 20.1856 6.93723 20.1856 6.93723 20.1856C6.93723 20.1856 6.93723 20.1856 6.93723 20.1856C6.93723 20.1856 6.93723 20.1856 6.93723 20.1856C6.93723 20.1856 6.93723 20.1856 6.93723 20.1856C6.93723 20.1856 6.93723 20.1856 6.93723 20.1856C6.93723 20.1856 6.93723 20.1856 6.93723 20.1856C6.93723 20.1856 6.93723 20.1856 6.93723 20.1856C6.93723 20.1856 6.93723 20.1856 6.93723 20.1856C6.93723 20.1856 6.93723 20.1856 6.93723 20.1856C6.93724 20.1856 6.93724 20.1856 6.93724 20.1856C6.93724 20.1856 6.93724 20.1856 6.93724 20.1856C6.93724 20.1856 6.93724 20.1856 6.93724 20.1856C6.93724 20.1856 6.93724 20.1856 6.93724 20.1856C6.93724 20.1856 6.93724 20.1856 6.93724 20.1856C6.93724 20.1856 6.93724 20.1856 6.93724 20.1856C6.93724 20.1856 6.93724 20.1856 6.93724 20.1856C6.93724 20.1856 6.93724 20.1856 6.93724 20.1856C6.93724 20.1856 6.93724 20.1856 6.93724 20.1856C6.93724 20.1856 6.93724 20.1856 6.93724 20.1856C6.93724 20.1856 6.93724 20.1856 6.93724 20.1856C6.93724 20.1856 6.93724 20.1856 6.93724 20.1856C6.93724 20.1856 6.93724 20.1856 6.93724 20.1856L6.93724 20.1856C6.93724 20.1856 6.93724 20.1856 6.93724 20.1856C6.93724 20.1856 6.93724 20.1856 6.93724 20.1856C6.93724 20.1856 6.93724 20.1856 6.93724 20.1856C6.93724 20.1856 6.93725 20.1856 6.93725 20.1856L6.93725 20.1856C6.93725 20.1855 6.93725 20.1855 6.93725 20.1855C6.93725 20.1855 6.93725 20.1855 6.93725 20.1855C6.93725 20.1855 6.93725 20.1855 6.93725 20.1855L6.93725 20.1855L6.93725 20.1855C6.93725 20.1855 6.93725 20.1855 6.93725 20.1855C6.93725 20.1855 6.93725 20.1855 6.93725 20.1855C6.93725 20.1855 6.93725 20.1855 6.93725 20.1855L6.93725 20.1855C6.93725 20.1855 6.93725 20.1855 6.93725 20.1855C6.93725 20.1855 6.93725 20.1855 6.93725 20.1855C6.93725 20.1855 6.93725 20.1855 6.93725 20.1855C6.93725 20.1855 6.93725 20.1855 6.93725 20.1855L6.93725 20.1855C6.93725 20.1855 6.93725 20.1855 6.93725 20.1855C6.93725 20.1855 6.93725 20.1855 6.93725 20.1855C6.93726 20.1855 6.93726 20.1855 6.93726 20.1855C6.93726 20.1855 6.93726 20.1855 6.93726 20.1855C6.93726 20.1855 6.93726 20.1855 6.93726 20.1855C6.93726 20.1855 6.93726 20.1855 6.93726 20.1855C6.93726 20.1855 6.93726 20.1855 6.93726 20.1855C6.93726 20.1855 6.93726 20.1855 6.93726 20.1855C6.93726 20.1855 6.93726 20.1855 6.93726 20.1855C6.93726 20.1855 6.93726 20.1855 6.93726 20.1855C6.93726 20.1855 6.93726 20.1855 6.93726 20.1855C6.93726 20.1855 6.93726 20.1855 6.93726 20.1855C6.93726 20.1855 6.93726 20.1855 6.93726 20.1855C6.93726 20.1855 6.93726 20.1855 6.93726 20.1855C6.93726 20.1855 6.93726 20.1855 6.93726 20.1855C6.93726 20.1855 6.93726 20.1855 6.93726 20.1855C6.93726 20.1855 6.93726 20.1855 6.93726 20.1855C6.93726 20.1855 6.93726 20.1855 6.93726 20.1855C6.93726 20.1855 6.93726 20.1855 6.93726 20.1855C6.93726 20.1855 6.93727 20.1855 6.93727 20.1855L6.93727 20.1855L6.45165 20.0664C6.45165 20.0664 6.45165 20.0664 6.45165 20.0664C6.45165 20.0664 6.45165 20.0664 6.45165 20.0664C6.45165 20.0664 6.45165 20.0664 6.45165 20.0664C6.45165 20.0664 6.45165 20.0664 6.45165 20.0664L6.45165 20.0664C6.45165 20.0664 6.45165 20.0664 6.45165 20.0664C6.45165 20.0664 6.45165 20.0664 6.45165 20.0664C6.45165 20.0664 6.45165 20.0664 6.45165 20.0664L6.45165 20.0664L6.45165 20.0664C6.45165 20.0664 6.45165 20.0664 6.45165 20.0664C6.45165 20.0664 6.45165 20.0664 6.45165 20.0664C6.45165 20.0664 6.45165 20.0664 6.45165 20.0664L6.45164 20.0664C6.45164 20.0664 6.45164 20.0664 6.45164 20.0664C6.45164 20.0664 6.45164 20.0664 6.45164 20.0664C6.45164 20.0664 6.45164 20.0664 6.45164 20.0664C6.45164 20.0664 6.45164 20.0664 6.45164 20.0664L6.45164 20.0664C6.45164 20.0664 6.45164 20.0664 6.45164 20.0664C6.45164 20.0664 6.45164 20.0664 6.45164 20.0664C6.45164 20.0664 6.45164 20.0664 6.45164 20.0664C6.45164 20.0664 6.45164 20.0664 6.45164 20.0664C6.45164 20.0664 6.45164 20.0664 6.45164 20.0664C6.45164 20.0664 6.45164 20.0664 6.45164 20.0664C6.45164 20.0664 6.45164 20.0664 6.45164 20.0665C6.45164 20.0665 6.45164 20.0665 6.45164 20.0665C6.45164 20.0665 6.45164 20.0665 6.45164 20.0665C6.45164 20.0665 6.45164 20.0665 6.45164 20.0665C6.45164 20.0665 6.45164 20.0665 6.45164 20.0665C6.45164 20.0665 6.45164 20.0665 6.45164 20.0665C6.45163 20.0665 6.45163 20.0665 6.45163 20.0665C6.45163 20.0665 6.45163 20.0665 6.45163 20.0665C6.45163 20.0665 6.45163 20.0665 6.45163 20.0665C6.45163 20.0665 6.45163 20.0665 6.45163 20.0665C6.45163 20.0665 6.45163 20.0665 6.45163 20.0665C6.45163 20.0665 6.45163 20.0665 6.45163 20.0665C6.45163 20.0665 6.45163 20.0665 6.45163 20.0665C6.45163 20.0665 6.45163 20.0665 6.45163 20.0665L6.45163 20.0665C6.45163 20.0665 6.45163 20.0665 6.45163 20.0665C6.45163 20.0665 6.45163 20.0665 6.45163 20.0665C6.45163 20.0665 6.45163 20.0665 6.45163 20.0665C6.45163 20.0665 6.45163 20.0665 6.45163 20.0665L6.45163 20.0665C6.45163 20.0665 6.45163 20.0665 6.45163 20.0665C6.45163 20.0665 6.45163 20.0665 6.45163 20.0665C6.45163 20.0665 6.45163 20.0665 6.45163 20.0665L6.45162 20.0665L6.45162 20.0665C6.45162 20.0665 6.45162 20.0665 6.45162 20.0665C6.45162 20.0665 6.45162 20.0665 6.45162 20.0665C6.45162 20.0665 6.45162 20.0665 6.45162 20.0665L6.45162 20.0665L6.45162 20.0665C6.45162 20.0665 6.45162 20.0665 6.45162 20.0665C6.45162 20.0665 6.45162 20.0665 6.45162 20.0665C6.45162 20.0665 6.45162 20.0665 6.45162 20.0665L6.45162 20.0665C6.45162 20.0665 6.45162 20.0665 6.45162 20.0665C6.45162 20.0665 6.45162 20.0665 6.45162 20.0665C6.45162 20.0665 6.45162 20.0665 6.45162 20.0665C6.45162 20.0665 6.45162 20.0665 6.45162 20.0665C6.45162 20.0665 6.45162 20.0665 6.45162 20.0665C6.45162 20.0665 6.45162 20.0665 6.45162 20.0665C6.45162 20.0665 6.45162 20.0665 6.45162 20.0665C6.45161 20.0665 6.45161 20.0665 6.45161 20.0665C6.45161 20.0665 6.45161 20.0665 6.45161 20.0665C6.45161 20.0665 6.45161 20.0665 6.45161 20.0665C6.45161 20.0666 6.45161 20.0666 6.45161 20.0666C6.45161 20.0666 6.45161 20.0666 6.45161 20.0666C6.45161 20.0666 6.45161 20.0666 6.45161 20.0666C6.45161 20.0666 6.45161 20.0666 6.45161 20.0666C6.45161 20.0666 6.45161 20.0666 6.45161 20.0666C6.45161 20.0666 6.45161 20.0666 6.45161 20.0666C6.45161 20.0666 6.45161 20.0666 6.45161 20.0666C6.45161 20.0666 6.45161 20.0666 6.45161 20.0666C6.45161 20.0666 6.45161 20.0666 6.45161 20.0666C6.45161 20.0666 6.45161 20.0666 6.45161 20.0666L6.45161 20.0666C6.45161 20.0666 6.45161 20.0666 6.45161 20.0666C6.45161 20.0666 6.45161 20.0666 6.45161 20.0666C6.45161 20.0666 6.45161 20.0666 6.45161 20.0666C6.45161 20.0666 6.4516 20.0666 6.4516 20.0666L6.4516 20.0666C6.4516 20.0666 6.4516 20.0666 6.4516 20.0666C6.4516 20.0666 6.4516 20.0666 6.4516 20.0666C6.4516 20.0666 6.4516 20.0666 6.4516 20.0666L6.4516 20.0666L6.4516 20.0666C6.4516 20.0666 6.4516 20.0666 6.4516 20.0666C6.4516 20.0666 6.4516 20.0666 6.4516 20.0666C6.4516 20.0666 6.4516 20.0666 6.4516 20.0666L6.4516 20.0666L6.4516 20.0666C6.4516 20.0666 6.4516 20.0666 6.4516 20.0666C6.4516 20.0666 6.4516 20.0666 6.4516 20.0666C6.4516 20.0666 6.4516 20.0666 6.4516 20.0666L6.4516 20.0666C6.4516 20.0666 6.4516 20.0666 6.4516 20.0666C6.4516 20.0666 6.4516 20.0666 6.4516 20.0666C6.45159 20.0666 6.45159 20.0666 6.45159 20.0666C6.45159 20.0666 6.45159 20.0666 6.45159 20.0666C6.45159 20.0666 6.45159 20.0666 6.45159 20.0666C6.45159 20.0666 6.45159 20.0666 6.45159 20.0666C6.45159 20.0666 6.45159 20.0666 6.45159 20.0666C6.45159 20.0666 6.45159 20.0666 6.45159 20.0666C6.45159 20.0666 6.45159 20.0666 6.45159 20.0666C6.45159 20.0666 6.45159 20.0666 6.45159 20.0666C6.45159 20.0666 6.45159 20.0666 6.45159 20.0666C6.45159 20.0666 6.45159 20.0666 6.45159 20.0666C6.45159 20.0666 6.45159 20.0667 6.45159 20.0667C6.45159 20.0667 6.45159 20.0667 6.45159 20.0667C6.45159 20.0667 6.45159 20.0667 6.45159 20.0667C6.45159 20.0667 6.45159 20.0667 6.45159 20.0667C6.45159 20.0667 6.45159 20.0667 6.45159 20.0667C6.45159 20.0667 6.45159 20.0667 6.45159 20.0667C6.45159 20.0667 6.45159 20.0667 6.45159 20.0667C6.45159 20.0667 6.45158 20.0667 6.45158 20.0667C6.45158 20.0667 6.45158 20.0667 6.45158 20.0667C6.45158 20.0667 6.45158 20.0667 6.45158 20.0667C6.45158 20.0667 6.45158 20.0667 6.45158 20.0667C6.45158 20.0667 6.45158 20.0667 6.45158 20.0667C6.45158 20.0667 6.45158 20.0667 6.45158 20.0667C6.45158 20.0667 6.45158 20.0667 6.45158 20.0667C6.45158 20.0667 6.45158 20.0667 6.45158 20.0667C6.45158 20.0667 6.45158 20.0667 6.45158 20.0667C6.45158 20.0667 6.45158 20.0667 6.45158 20.0667L6.45158 20.0667C6.45158 20.0667 6.45158 20.0667 6.45158 20.0667C6.45158 20.0667 6.45158 20.0667 6.45158 20.0667C6.45158 20.0667 6.45158 20.0667 6.45158 20.0667C6.45158 20.0667 6.45158 20.0667 6.45158 20.0667L6.45158 20.0667C6.45158 20.0667 6.45158 20.0667 6.45158 20.0667C6.45158 20.0667 6.45158 20.0667 6.45157 20.0667C6.45157 20.0667 6.45157 20.0667 6.45157 20.0667L6.45157 20.0667L6.45157 20.0667C6.45157 20.0667 6.45157 20.0667 6.45157 20.0667C6.45157 20.0667 6.45157 20.0667 6.45157 20.0667C6.45157 20.0667 6.45157 20.0667 6.45157 20.0667L6.45157 20.0667L6.45157 20.0667C6.45157 20.0667 6.45157 20.0667 6.45157 20.0667C6.45157 20.0667 6.45157 20.0667 6.45157 20.0667C6.45157 20.0667 6.45157 20.0667 6.45157 20.0667L6.45157 20.0667C6.45157 20.0667 6.45157 20.0667 6.45157 20.0667C6.45157 20.0667 6.45157 20.0667 6.45157 20.0667C6.45157 20.0667 6.45157 20.0667 6.45157 20.0667C6.45157 20.0667 6.45157 20.0667 6.45157 20.0667C6.45157 20.0667 6.45157 20.0667 6.45157 20.0667C6.45157 20.0667 6.45156 20.0667 6.45156 20.0667C6.45156 20.0667 6.45156 20.0667 6.45156 20.0668C6.45156 20.0668 6.45156 20.0668 6.45156 20.0668C6.45156 20.0668 6.45156 20.0668 6.45156 20.0668C6.45156 20.0668 6.45156 20.0668 6.45156 20.0668C6.45156 20.0668 6.45156 20.0668 6.45156 20.0668C6.45156 20.0668 6.45156 20.0668 6.45156 20.0668C6.45156 20.0668 6.45156 20.0668 6.45156 20.0668C6.45156 20.0668 6.45156 20.0668 6.45156 20.0668C6.45156 20.0668 6.45156 20.0668 6.45156 20.0668C6.45156 20.0668 6.45156 20.0668 6.45156 20.0668C6.45156 20.0668 6.45156 20.0668 6.45156 20.0668C6.45156 20.0668 6.45156 20.0668 6.45156 20.0668C6.45156 20.0668 6.45156 20.0668 6.45156 20.0668C6.45156 20.0668 6.45156 20.0668 6.45156 20.0668L6.45156 20.0668C6.45156 20.0668 6.45156 20.0668 6.45156 20.0668C6.45156 20.0668 6.45156 20.0668 6.45155 20.0668C6.45155 20.0668 6.45155 20.0668 6.45155 20.0668C6.45155 20.0668 6.45155 20.0668 6.45155 20.0668L6.45155 20.0668C6.45155 20.0668 6.45155 20.0668 6.45155 20.0668C6.45155 20.0668 6.45155 20.0668 6.45155 20.0668C6.45155 20.0668 6.45155 20.0668 6.45155 20.0668L6.45155 20.0668L6.45155 20.0668C6.45155 20.0668 6.45155 20.0668 6.45155 20.0668C6.45155 20.0668 6.45155 20.0668 6.45155 20.0668C6.45155 20.0668 6.45155 20.0668 6.45155 20.0668L6.45155 20.0668L6.45155 20.0668C6.45155 20.0668 6.45155 20.0668 6.45155 20.0668C6.45155 20.0668 6.45155 20.0668 6.45155 20.0668C6.45155 20.0668 6.45155 20.0668 6.45155 20.0668L6.45155 20.0668C6.45155 20.0668 6.45154 20.0668 6.45154 20.0668C6.45154 20.0668 6.45154 20.0668 6.45154 20.0668C6.45154 20.0668 6.45154 20.0668 6.45154 20.0668C6.45154 20.0668 6.45154 20.0668 6.45154 20.0668L6.45154 20.0668C6.45154 20.0668 6.45154 20.0668 6.45154 20.0668C6.45154 20.0668 6.45154 20.0668 6.45154 20.0668C6.45154 20.0668 6.45154 20.0668 6.45154 20.0668C6.45154 20.0668 6.45154 20.0668 6.45154 20.0668C6.45154 20.0669 6.45154 20.0669 6.45154 20.0669C6.45154 20.0669 6.45154 20.0669 6.45154 20.0669C6.45154 20.0669 6.45154 20.0669 6.45154 20.0669C6.45154 20.0669 6.45154 20.0669 6.45154 20.0669C6.45154 20.0669 6.45154 20.0669 6.45154 20.0669C6.45154 20.0669 6.45154 20.0669 6.45154 20.0669C6.45154 20.0669 6.45154 20.0669 6.45154 20.0669C6.45154 20.0669 6.45154 20.0669 6.45154 20.0669C6.45154 20.0669 6.45154 20.0669 6.45153 20.0669C6.45153 20.0669 6.45153 20.0669 6.45153 20.0669C6.45153 20.0669 6.45153 20.0669 6.45153 20.0669C6.45153 20.0669 6.45153 20.0669 6.45153 20.0669C6.45153 20.0669 6.45153 20.0669 6.45153 20.0669C6.45153 20.0669 6.45153 20.0669 6.45153 20.0669C6.45153 20.0669 6.45153 20.0669 6.45153 20.0669C6.45153 20.0669 6.45153 20.0669 6.45153 20.0669L6.45153 20.0669C6.45153 20.0669 6.45153 20.0669 6.45153 20.0669C6.45153 20.0669 6.45153 20.0669 6.45153 20.0669C6.45153 20.0669 6.45153 20.0669 6.45153 20.0669L6.45153 20.0669L6.45153 20.0669C6.45153 20.0669 6.45153 20.0669 6.45153 20.0669C6.45153 20.0669 6.45153 20.0669 6.45153 20.0669C6.45153 20.0669 6.45153 20.0669 6.45153 20.0669L6.45153 20.0669L6.45152 20.0669C6.45152 20.0669 6.45152 20.0669 6.45152 20.0669C6.45152 20.0669 6.45152 20.0669 6.45152 20.0669C6.45152 20.0669 6.45152 20.0669 6.45152 20.0669L6.45152 20.0669C6.45152 20.0669 6.45152 20.0669 6.45152 20.0669C6.45152 20.0669 6.45152 20.0669 6.45152 20.0669C6.45152 20.0669 6.45152 20.0669 6.45152 20.0669C6.45152 20.0669 6.45152 20.0669 6.45152 20.0669L6.45152 20.0669C6.45152 20.0669 6.45152 20.0669 6.45152 20.0669C6.45152 20.0669 6.45152 20.0669 6.45152 20.0669C6.45152 20.0669 6.45152 20.0669 6.45152 20.0669C6.45152 20.0669 6.45152 20.0669 6.45152 20.0669C6.45152 20.0669 6.45152 20.0669 6.45152 20.0669C6.45152 20.0669 6.45152 20.0669 6.45152 20.0669C6.45152 20.0669 6.45152 20.0669 6.45152 20.0669C6.45152 20.0669 6.45152 20.067 6.45151 20.067C6.45151 20.067 6.45151 20.067 6.45151 20.067C6.45151 20.067 6.45151 20.067 6.45151 20.067C6.45151 20.067 6.45151 20.067 6.45151 20.067C6.45151 20.067 6.45151 20.067 6.45151 20.067C6.45151 20.067 6.45151 20.067 6.45151 20.067C6.45151 20.067 6.45151 20.067 6.45151 20.067C6.45151 20.067 6.45151 20.067 6.45151 20.067C6.45151 20.067 6.45151 20.067 6.45151 20.067C6.45151 20.067 6.45151 20.067 6.45151 20.067C6.45151 20.067 6.45151 20.067 6.45151 20.067C6.45151 20.067 6.45151 20.067 6.45151 20.067C6.45151 20.067 6.45151 20.067 6.45151 20.067L6.45151 20.067C6.45151 20.067 6.45151 20.067 6.45151 20.067C6.45151 20.067 6.45151 20.067 6.45151 20.067C6.45151 20.067 6.45151 20.067 6.45151 20.067C6.45151 20.067 6.45151 20.067 6.45151 20.067L6.4515 20.067C6.4515 20.067 6.4515 20.067 6.4515 20.067C6.4515 20.067 6.4515 20.067 6.4515 20.067C6.4515 20.067 6.4515 20.067 6.4515 20.067L6.4515 20.067L6.4515 20.067C6.4515 20.067 6.4515 20.067 6.4515 20.067C6.4515 20.067 6.4515 20.067 6.4515 20.067C6.4515 20.067 6.4515 20.067 6.4515 20.067L6.4515 20.067C6.4515 20.067 6.4515 20.067 6.4515 20.067C6.4515 20.067 6.4515 20.067 6.4515 20.067C6.4515 20.067 6.4515 20.067 6.4515 20.067C6.4515 20.067 6.4515 20.067 6.4515 20.067L6.4515 20.067C6.4515 20.067 6.4515 20.067 6.4515 20.067C6.4515 20.067 6.4515 20.067 6.4515 20.067C6.4515 20.067 6.4515 20.067 6.45149 20.067C6.45149 20.067 6.45149 20.067 6.45149 20.067C6.45149 20.067 6.45149 20.067 6.45149 20.067C6.45149 20.067 6.45149 20.067 6.45149 20.067C6.45149 20.067 6.45149 20.067 6.45149 20.067C6.45149 20.067 6.45149 20.067 6.45149 20.067C6.45149 20.067 6.45149 20.067 6.45149 20.067C6.45149 20.067 6.45149 20.067 6.45149 20.0671C6.45149 20.0671 6.45149 20.0671 6.45149 20.0671C6.45149 20.0671 6.45149 20.0671 6.45149 20.0671C6.45149 20.0671 6.45149 20.0671 6.45149 20.0671C6.45149 20.0671 6.45149 20.0671 6.45149 20.0671C6.45149 20.0671 6.45149 20.0671 6.45149 20.0671C6.45149 20.0671 6.45149 20.0671 6.45149 20.0671C6.45149 20.0671 6.45149 20.0671 6.45149 20.0671C6.45149 20.0671 6.45149 20.0671 6.45149 20.0671C6.45149 20.0671 6.45149 20.0671 6.45149 20.0671C6.45149 20.0671 6.45149 20.0671 6.45149 20.0671C6.45148 20.0671 6.45148 20.0671 6.45148 20.0671C6.45148 20.0671 6.45148 20.0671 6.45148 20.0671C6.45148 20.0671 6.45148 20.0671 6.45148 20.0671C6.45148 20.0671 6.45148 20.0671 6.45148 20.0671C6.45148 20.0671 6.45148 20.0671 6.45148 20.0671C6.45148 20.0671 6.45148 20.0671 6.45148 20.0671C6.45148 20.0671 6.45148 20.0671 6.45148 20.0671C6.45148 20.0671 6.45148 20.0671 6.45148 20.0671C6.45148 20.0671 6.45148 20.0671 6.45148 20.0671L6.45148 20.0671C6.45148 20.0671 6.45148 20.0671 6.45148 20.0671C6.45148 20.0671 6.45148 20.0671 6.45148 20.0671C6.45148 20.0671 6.45148 20.0671 6.45148 20.0671L6.45148 20.0671L6.45148 20.0671C6.45148 20.0671 6.45148 20.0671 6.45148 20.0671C6.45148 20.0671 6.45148 20.0671 6.45148 20.0671C6.45148 20.0671 6.45148 20.0671 6.45147 20.0671L6.45147 20.0671L6.45147 20.0671C6.45147 20.0671 6.45147 20.0671 6.45147 20.0671C6.45147 20.0671 6.45147 20.0671 6.45147 20.0671C6.45147 20.0671 6.45147 20.0671 6.45147 20.0671L6.45147 20.0671C6.45147 20.0671 6.45147 20.0671 6.45147 20.0671C6.45147 20.0671 6.45147 20.0671 6.45147 20.0671C6.45147 20.0671 6.45147 20.0671 6.45147 20.0671C6.45147 20.0671 6.45147 20.0671 6.45147 20.0671L6.45147 20.0671C6.45147 20.0671 6.45147 20.0671 6.45147 20.0671C6.45147 20.0671 6.45147 20.0671 6.45147 20.0671C6.45147 20.0671 6.45147 20.0671 6.45147 20.0671C6.45147 20.0671 6.45147 20.0672 6.45147 20.0672C6.45147 20.0672 6.45147 20.0672 6.45147 20.0672C6.45147 20.0672 6.45147 20.0672 6.45147 20.0672C6.45146 20.0672 6.45146 20.0672 6.45146 20.0672C6.45146 20.0672 6.45146 20.0672 6.45146 20.0672C6.45146 20.0672 6.45146 20.0672 6.45146 20.0672C6.45146 20.0672 6.45146 20.0672 6.45146 20.0672C6.45146 20.0672 6.45146 20.0672 6.45146 20.0672C6.45146 20.0672 6.45146 20.0672 6.45146 20.0672C6.45146 20.0672 6.45146 20.0672 6.45146 20.0672C6.45146 20.0672 6.45146 20.0672 6.45146 20.0672C6.45146 20.0672 6.45146 20.0672 6.45146 20.0672C6.45146 20.0672 6.45146 20.0672 6.45146 20.0672C6.45146 20.0672 6.45146 20.0672 6.45146 20.0672C6.45146 20.0672 6.45146 20.0672 6.45146 20.0672C6.45146 20.0672 6.45146 20.0672 6.45146 20.0672C6.45146 20.0672 6.45146 20.0672 6.45146 20.0672L6.45146 20.0672C6.45146 20.0672 6.45146 20.0672 6.45146 20.0672C6.45146 20.0672 6.45146 20.0672 6.45146 20.0672C6.45146 20.0672 6.45146 20.0672 6.45145 20.0672C6.45145 20.0672 6.45145 20.0672 6.45145 20.0672L6.45145 20.0672C6.45145 20.0672 6.45145 20.0672 6.45145 20.0672C6.45145 20.0672 6.45145 20.0672 6.45145 20.0672C6.45145 20.0672 6.45145 20.0672 6.45145 20.0672L6.45145 20.0672L6.45145 20.0672C6.45145 20.0672 6.45145 20.0672 6.45145 20.0672C6.45145 20.0672 6.45145 20.0672 6.45145 20.0672C6.45145 20.0672 6.45145 20.0672 6.45145 20.0672L6.45145 20.0672C6.45145 20.0672 6.45145 20.0672 6.45145 20.0672C6.45145 20.0672 6.45145 20.0672 6.45145 20.0672C6.45145 20.0672 6.45145 20.0672 6.45145 20.0672C6.45145 20.0672 6.45145 20.0672 6.45145 20.0672L6.45145 20.0672C6.45145 20.0672 6.45145 20.0672 6.45145 20.0672C6.45144 20.0672 6.45144 20.0672 6.45144 20.0672C6.45144 20.0672 6.45144 20.0672 6.45144 20.0672C6.45144 20.0672 6.45144 20.0672 6.45144 20.0672C6.45144 20.0672 6.45144 20.0672 6.45144 20.0672C6.45144 20.0672 6.45144 20.0672 6.45144 20.0672C6.45144 20.0672 6.45144 20.0672 6.45144 20.0673C6.45144 20.0673 6.45144 20.0673 6.45144 20.0673C6.45144 20.0673 6.45144 20.0673 6.45144 20.0673C6.45144 20.0673 6.45144 20.0673 6.45144 20.0673C6.45144 20.0673 6.45144 20.0673 6.45144 20.0673C6.45144 20.0673 6.45144 20.0673 6.45144 20.0673C6.45144 20.0673 6.45144 20.0673 6.45144 20.0673C6.45144 20.0673 6.45144 20.0673 6.45144 20.0673C6.45144 20.0673 6.45144 20.0673 6.45144 20.0673C6.45144 20.0673 6.45144 20.0673 6.45144 20.0673C6.45144 20.0673 6.45144 20.0673 6.45144 20.0673C6.45144 20.0673 6.45144 20.0673 6.45144 20.0673C6.45144 20.0673 6.45144 20.0673 6.45143 20.0673C6.45143 20.0673 6.45143 20.0673 6.45143 20.0673L6.45143 20.0673C6.45143 20.0673 6.45143 20.0673 6.45143 20.0673C6.45143 20.0673 6.45143 20.0673 6.45143 20.0673C6.45143 20.0673 6.45143 20.0673 6.45143 20.0673C6.45143 20.0673 6.45143 20.0673 6.45143 20.0673L6.45143 20.0673C6.45143 20.0673 6.45143 20.0673 6.45143 20.0673C6.45143 20.0673 6.45143 20.0673 6.45143 20.0673C6.45143 20.0673 6.45143 20.0673 6.45143 20.0673L6.45143 20.0673L6.45143 20.0673C6.45143 20.0673 6.45143 20.0673 6.45143 20.0673C6.45143 20.0673 6.45143 20.0673 6.45143 20.0673C6.45143 20.0673 6.45143 20.0673 6.45143 20.0673L6.45143 20.0673C6.45143 20.0673 6.45143 20.0673 6.45143 20.0673C6.45142 20.0673 6.45142 20.0673 6.45142 20.0673C6.45142 20.0673 6.45142 20.0673 6.45142 20.0673C6.45142 20.0673 6.45142 20.0673 6.45142 20.0673L6.45142 20.0673C6.45142 20.0673 6.45142 20.0673 6.45142 20.0673C6.45142 20.0673 6.45142 20.0673 6.45142 20.0673C6.45142 20.0673 6.45142 20.0673 6.45142 20.0673C6.45142 20.0673 6.45142 20.0673 6.45142 20.0673C6.45142 20.0673 6.45142 20.0673 6.45142 20.0673C6.45142 20.0673 6.45142 20.0673 6.45142 20.0673C6.45142 20.0673 6.45142 20.0673 6.45142 20.0673C6.45142 20.0673 6.45142 20.0673 6.45142 20.0673C6.45142 20.0673 6.45142 20.0673 6.45142 20.0673C6.45142 20.0674 6.45142 20.0674 6.45142 20.0674C6.45142 20.0674 6.45142 20.0674 6.45142 20.0674C6.45142 20.0674 6.45142 20.0674 6.45142 20.0674C6.45142 20.0674 6.45142 20.0674 6.45142 20.0674C6.45142 20.0674 6.45142 20.0674 6.45141 20.0674C6.45141 20.0674 6.45141 20.0674 6.45141 20.0674C6.45141 20.0674 6.45141 20.0674 6.45141 20.0674C6.45141 20.0674 6.45141 20.0674 6.45141 20.0674C6.45141 20.0674 6.45141 20.0674 6.45141 20.0674C6.45141 20.0674 6.45141 20.0674 6.45141 20.0674C6.45141 20.0674 6.45141 20.0674 6.45141 20.0674L6.45141 20.0674C6.45141 20.0674 6.45141 20.0674 6.45141 20.0674C6.45141 20.0674 6.45141 20.0674 6.45141 20.0674C6.45141 20.0674 6.45141 20.0674 6.45141 20.0674C6.45141 20.0674 6.45141 20.0674 6.45141 20.0674L6.45141 20.0674C6.45141 20.0674 6.45141 20.0674 6.45141 20.0674C6.45141 20.0674 6.45141 20.0674 6.45141 20.0674C6.45141 20.0674 6.45141 20.0674 6.45141 20.0674L6.45141 20.0674L6.45141 20.0674C6.4514 20.0674 6.4514 20.0674 6.4514 20.0674C6.4514 20.0674 6.4514 20.0674 6.4514 20.0674C6.4514 20.0674 6.4514 20.0674 6.4514 20.0674L6.4514 20.0674C6.4514 20.0674 6.4514 20.0674 6.4514 20.0674C6.4514 20.0674 6.4514 20.0674 6.4514 20.0674C6.4514 20.0674 6.4514 20.0674 6.4514 20.0674C6.4514 20.0674 6.4514 20.0674 6.4514 20.0674L6.4514 20.0674C6.4514 20.0674 6.4514 20.0674 6.4514 20.0674C6.4514 20.0674 6.4514 20.0674 6.4514 20.0674C6.4514 20.0674 6.4514 20.0674 6.4514 20.0674C6.4514 20.0674 6.4514 20.0674 6.4514 20.0674C6.4514 20.0674 6.4514 20.0674 6.4514 20.0674C6.4514 20.0674 6.4514 20.0674 6.4514 20.0674C6.4514 20.0674 6.4514 20.0674 6.4514 20.0674C6.4514 20.0674 6.4514 20.0674 6.4514 20.0674C6.4514 20.0674 6.4514 20.0674 6.45139 20.0674C6.45139 20.0674 6.45139 20.0674 6.45139 20.0674C6.45139 20.0674 6.45139 20.0674 6.45139 20.0674C6.45139 20.0674 6.45139 20.0674 6.45139 20.0674C6.45139 20.0674 6.45139 20.0675 6.45139 20.0675C6.45139 20.0675 6.45139 20.0675 6.45139 20.0675C6.45139 20.0675 6.45139 20.0675 6.45139 20.0675C6.45139 20.0675 6.45139 20.0675 6.45139 20.0675C6.45139 20.0675 6.45139 20.0675 6.45139 20.0675C6.45139 20.0675 6.45139 20.0675 6.45139 20.0675C6.45139 20.0675 6.45139 20.0675 6.45139 20.0675C6.45139 20.0675 6.45139 20.0675 6.45139 20.0675C6.45139 20.0675 6.45139 20.0675 6.45139 20.0675C6.45139 20.0675 6.45139 20.0675 6.45139 20.0675C6.45139 20.0675 6.45139 20.0675 6.45139 20.0675C6.45139 20.0675 6.45139 20.0675 6.45139 20.0675C6.45139 20.0675 6.45139 20.0675 6.45139 20.0675C6.45139 20.0675 6.45139 20.0675 6.45139 20.0675C6.45138 20.0675 6.45138 20.0675 6.45138 20.0675C6.45138 20.0675 6.45138 20.0675 6.45138 20.0675C6.45138 20.0675 6.45138 20.0675 6.45138 20.0675L6.45138 20.0675C6.45138 20.0675 6.45138 20.0675 6.45138 20.0675C6.45138 20.0675 6.45138 20.0675 6.45138 20.0675C6.45138 20.0675 6.45138 20.0675 6.45138 20.0675C6.45138 20.0675 6.45138 20.0675 6.45138 20.0675L6.45138 20.0675C6.45138 20.0675 6.45138 20.0675 6.45138 20.0675C6.45138 20.0675 6.45138 20.0675 6.45138 20.0675C6.45138 20.0675 6.45138 20.0675 6.45138 20.0675L6.45138 20.0675L6.45138 20.0675C6.45138 20.0675 6.45138 20.0675 6.45138 20.0675C6.45138 20.0675 6.45138 20.0675 6.45138 20.0675C6.45138 20.0675 6.45138 20.0675 6.45138 20.0675L6.45137 20.0675C6.45137 20.0675 6.45137 20.0675 6.45137 20.0675C6.45137 20.0675 6.45137 20.0675 6.45137 20.0675C6.45137 20.0675 6.45137 20.0675 6.45137 20.0675C6.45137 20.0675 6.45137 20.0675 6.45137 20.0675L6.45137 20.0675C6.45137 20.0675 6.45137 20.0675 6.45137 20.0675C6.45137 20.0675 6.45137 20.0675 6.45137 20.0675C6.45137 20.0675 6.45137 20.0675 6.45137 20.0675C6.45137 20.0675 6.45137 20.0675 6.45137 20.0675C6.45137 20.0675 6.45137 20.0675 6.45137 20.0675C6.45137 20.0675 6.45137 20.0675 6.45137 20.0676C6.45137 20.0676 6.45137 20.0676 6.45137 20.0676C6.45137 20.0676 6.45137 20.0676 6.45137 20.0676C6.45137 20.0676 6.45137 20.0676 6.45137 20.0676C6.45137 20.0676 6.45137 20.0676 6.45137 20.0676C6.45137 20.0676 6.45137 20.0676 6.45137 20.0676C6.45136 20.0676 6.45136 20.0676 6.45136 20.0676C6.45136 20.0676 6.45136 20.0676 6.45136 20.0676C6.45136 20.0676 6.45136 20.0676 6.45136 20.0676C6.45136 20.0676 6.45136 20.0676 6.45136 20.0676C6.45136 20.0676 6.45136 20.0676 6.45136 20.0676C6.45136 20.0676 6.45136 20.0676 6.45136 20.0676C6.45136 20.0676 6.45136 20.0676 6.45136 20.0676C6.45136 20.0676 6.45136 20.0676 6.45136 20.0676C6.45136 20.0676 6.45136 20.0676 6.45136 20.0676L6.45136 20.0676L6.93697 20.1867ZM4.40239 23.8087C5.29743 23.0662 6.50999 21.927 6.93697 20.1867L6.45137 20.0676C6.06494 21.6426 4.96306 22.6939 4.08314 23.4239L4.40239 23.8087ZM4.40119 23.8097L4.40142 23.8095L4.08412 23.4231L4.08389 23.4233L4.40119 23.8097ZM3.73089 23.3913L4.05013 23.7761L4.43495 23.4569L4.1157 23.0721L3.73089 23.3913ZM4.43533 23.456L4.11543 23.0718L3.73116 23.3917L4.05107 23.7759L4.43533 23.456ZM4.40334 23.8079L4.40377 23.8076L4.08263 23.4244L4.0822 23.4247L4.40334 23.8079ZM4.30204 23.8917C4.33514 23.8645 4.36871 23.8368 4.40271 23.8085L4.08282 23.4242C4.04973 23.4517 4.01701 23.4788 3.98471 23.5053L4.30204 23.8917ZM4.1236 23.4493C4.10208 23.451 4.0807 23.4526 4.05947 23.4541L4.09402 23.9529C4.11695 23.9513 4.14 23.9496 4.16315 23.9477L4.1236 23.4493ZM4.05954 23.4541C3.77061 23.474 3.59991 23.4293 3.32947 23.3571L3.20061 23.8403C3.47835 23.9143 3.71713 23.9789 4.09395 23.9529L4.05954 23.4541ZM3.32946 23.3571C3.26505 23.34 3.19449 23.3211 3.11705 23.302L2.99706 23.7874C3.06944 23.8053 3.1358 23.823 3.20061 23.8403L3.32946 23.3571ZM2.81436 23.4847L2.69438 23.9701L3.17977 24.0901L3.29975 23.6047L2.81436 23.4847ZM2.74736 24.1929L3.07301 24.5723L3.45242 24.2467L3.12678 23.8673L2.74736 24.1929ZM3.42554 24.5992C3.53661 24.5039 3.67157 24.3966 3.84061 24.2624L3.52981 23.8708C3.36294 24.0032 3.21977 24.1169 3.09989 24.2198L3.42554 24.5992ZM3.8406 24.2624L3.84655 24.2577L3.53578 23.866L3.52982 23.8707L3.8406 24.2624ZM3.84656 24.2577C3.96514 24.1636 4.09694 24.059 4.23779 23.9443L3.92195 23.5566C3.78396 23.6691 3.65457 23.7718 3.53577 23.866L3.84656 24.2577ZM3.83047 23.7677L3.86175 24.2195L4.36055 24.185L4.32927 23.7332L3.83047 23.7677ZM4.36056 24.1851L4.32939 23.7332L3.83057 23.7676L3.86174 24.2195L4.36056 24.1851ZM4.2379 23.9442C4.25907 23.9269 4.28045 23.9094 4.30204 23.8917L3.98471 23.5053C3.96365 23.5226 3.94276 23.5397 3.92206 23.5566L4.2379 23.9442ZM6.44793 22.9939C5.60705 23.2254 4.80184 23.3955 4.12359 23.4493L4.16316 23.9477C4.88654 23.8903 5.72618 23.7113 6.58065 23.476L6.44793 22.9939ZM6.27328 23.3014L6.40614 23.7834L6.88817 23.6506L6.7553 23.1685L6.27328 23.3014ZM6.88818 23.6506L6.75546 23.1686L6.2734 23.3013L6.40612 23.7834L6.88818 23.6506ZM6.44375 22.9951L6.44361 22.9952L6.58497 23.4748L6.58511 23.4747L6.44375 22.9951ZM10.7069 21.4589C9.87869 21.8236 8.1593 22.5222 6.44786 22.994L6.58072 23.476C8.32463 22.9953 10.0686 22.2863 10.9084 21.9165L10.7069 21.4589ZM10.6862 21.4691L10.6661 21.4803L10.909 21.9174L10.929 21.9062L10.6862 21.4691ZM10.569 21.8202L10.8118 22.2573L11.2489 22.0145L11.0061 21.5774L10.569 21.8202ZM11.2591 22.0349L11.0571 21.5775L10.5997 21.7795L10.8017 22.2369L11.2591 22.0349ZM10.7274 21.4498C10.7206 21.4528 10.7138 21.4558 10.7069 21.4589L10.9084 21.9165C10.9154 21.9134 10.9225 21.9103 10.9294 21.9072L10.7274 21.4498ZM10.807 21.402L10.6862 21.4691L10.929 21.9062L11.0498 21.8391L10.807 21.402ZM10.985 21.3031L10.807 21.402L11.0498 21.8391L11.2278 21.7402L10.985 21.3031ZM11.3686 21.3341L11.1722 21.2805L11.0406 21.7629L11.237 21.8164L11.3686 21.3341ZM11.5289 21.3778L11.3686 21.3341L11.237 21.8164L11.3974 21.8602L11.5289 21.3778ZM11.5169 21.3748C11.5131 21.374 11.5093 21.3732 11.5054 21.3723L11.3975 21.8605C11.4014 21.8614 11.4054 21.8622 11.4094 21.8631L11.5169 21.3748ZM11.2074 21.5624L11.0994 22.0506L11.5876 22.1586L11.6956 21.6704L11.2074 21.5624ZM11.5847 22.1704L11.7162 21.688L11.2338 21.5564L11.1023 22.0388L11.5847 22.1704ZM11.5408 21.381L11.5289 21.3778L11.3974 21.8602L11.4093 21.8634L11.5408 21.381ZM13.989 21.6364C13.1285 21.6364 12.3235 21.5524 11.5169 21.3748L11.4094 21.8631C12.2535 22.0489 13.0945 22.1364 13.989 22.1364V21.6364ZM24.7606 12.2737C24.7606 17.33 20.0892 21.6364 13.989 21.6364V22.1364C20.3058 22.1364 25.2606 17.6621 25.2606 12.2737H24.7606ZM14.036 2.84833C20.124 2.84833 24.7606 7.20435 24.7606 12.2737H25.2606C25.2606 6.87819 20.3473 2.34833 14.036 2.34833V2.84833ZM14.036 1.34833C7.2887 1.34833 1.7644 6.15594 1.7644 12.211H2.2644C2.2644 6.4896 7.50359 1.84833 14.036 1.84833V1.34833ZM26.2606 12.2737C26.2606 6.22378 20.7916 1.34833 14.036 1.34833V1.84833C20.5698 1.84833 25.7606 6.55129 25.7606 12.2737H26.2606ZM13.989 23.1364C20.7363 23.1364 26.2606 18.3288 26.2606 12.2737H25.7606C25.7606 17.9951 20.5215 22.6364 13.989 22.6364V23.1364ZM11.1815 22.8369C12.1047 23.0411 13.0221 23.1364 13.989 23.1364V22.6364C13.0562 22.6364 12.1751 22.5446 11.2895 22.3487L11.1815 22.8369ZM11.18 22.8366L11.1813 22.8369L11.2896 22.3487L11.2883 22.3484L11.18 22.8366ZM11.3334 22.8219L11.3352 22.8211L11.1331 22.3638L11.1313 22.3646L11.3334 22.8219ZM6.84645 24.44C8.67024 23.9373 10.4782 23.1996 11.3333 22.822L11.1314 22.3646C10.288 22.737 8.50472 23.4643 6.71358 23.958L6.84645 24.44ZM6.8443 24.4406L6.84443 24.4406L6.7156 23.9575L6.71546 23.9575L6.8443 24.4406ZM4.16295 24.9505C4.99815 24.8927 5.93746 24.6903 6.84624 24.4401L6.71352 23.958C5.81835 24.2045 4.91559 24.3972 4.12841 24.4517L4.16295 24.9505ZM4.16383 24.9504L4.16396 24.9504L4.1274 24.4517L4.12727 24.4518L4.16383 24.9504ZM2.90658 24.7977C3.19752 24.8769 3.60611 24.9889 4.16275 24.9505L4.12835 24.4517C3.66052 24.4839 3.32053 24.3922 3.0379 24.3153L2.90658 24.7977ZM2.7571 24.7582C2.80248 24.7694 2.85114 24.7826 2.90659 24.7977L3.0379 24.3153C2.98375 24.3005 2.92921 24.2857 2.87708 24.2728L2.7571 24.7582ZM1.81512 24.5253L2.7571 24.7582L2.87708 24.2728L1.9351 24.0399L1.81512 24.5253ZM2.44861 23.461L1.71229 24.0929L2.03793 24.4723L2.77425 23.8404L2.44861 23.461ZM2.90698 23.0884C2.74474 23.2171 2.58569 23.3433 2.44861 23.461L2.77425 23.8404C2.90257 23.7302 3.05349 23.6104 3.21778 23.4801L2.90698 23.0884ZM2.90841 23.0873L2.90717 23.0882L3.21759 23.4802L3.21883 23.4792L2.90841 23.0873ZM2.91147 23.0848L2.90821 23.0874L3.21903 23.4791L3.2223 23.4765L2.91147 23.0848ZM3.44344 22.6553C3.25379 22.8132 3.07701 22.9535 2.91149 23.0848L3.22228 23.4765C3.38745 23.3454 3.56858 23.2017 3.76334 23.0396L3.44344 22.6553ZM3.44421 22.6547L3.44355 22.6552L3.76323 23.0397L3.76389 23.0391L3.44421 22.6547ZM5.47889 19.8345C5.17243 21.076 4.29335 21.9502 3.44443 22.6545L3.76367 23.0393C4.62743 22.3227 5.61713 21.3609 5.96432 19.9543L5.47889 19.8345ZM5.55174 20.0781L5.55998 20.0851L5.88323 19.7037L5.87498 19.6967L5.55174 20.0781ZM1.7644 12.211C1.7644 15.304 3.19511 18.0809 5.55172 20.0781L5.875 19.6967C3.61792 17.7838 2.2644 15.1414 2.2644 12.211H1.7644Z" fill="white"/>
</svg>
