<svg width="26" height="20" viewBox="0 0 26 20" fill="none" xmlns="http://www.w3.org/2000/svg">
<path fill-rule="evenodd" clip-rule="evenodd" d="M25.5125 2.18776C25.5125 7.23334 25.5125 12.279 25.5125 17.3245C25.4398 17.5556 25.3964 17.8014 25.2893 18.0154C24.852 18.89 24.1177 19.2786 23.1536 19.2784C16.3928 19.277 9.63189 19.2776 2.87112 19.2776C2.83045 19.2776 2.78977 19.2784 2.74909 19.2773C2.00564 19.258 1.37022 18.9899 0.954211 18.365C0.749018 18.0568 0.656122 17.6737 0.512451 17.3245C0.512451 12.279 0.512451 7.23334 0.512451 2.18776C0.585008 1.9566 0.62821 1.7108 0.735315 1.49696C1.17296 0.622957 1.9061 0.233415 2.87098 0.233704C9.63189 0.235507 16.3928 0.234641 23.1538 0.234641C23.1944 0.234641 23.2351 0.23392 23.2757 0.23493C24.0192 0.254187 24.6545 0.522344 25.0705 1.14723C25.2758 1.45548 25.3687 1.83853 25.5125 2.18776ZM22.941 1.71988C16.3196 1.71988 9.69836 1.71988 3.03979 1.71988C6.39436 5.04516 9.71985 8.3418 13.0311 11.6242C16.347 8.31021 19.6422 5.01681 22.941 1.71988ZM10.1523 10.7667C7.76708 13.1517 5.43567 15.4831 3.12207 17.7965C9.70411 17.7965 16.3266 17.7965 22.9081 17.7965C20.6007 15.4883 18.2809 13.1679 15.9395 10.8258C15.7797 10.9913 15.6022 11.1803 15.4192 11.3638C14.8219 11.963 14.2254 12.5631 13.6229 13.1572C13.267 13.5082 12.8646 13.5057 12.5018 13.1637C12.4308 13.0967 12.3619 13.0275 12.2937 12.9577C11.5719 12.2195 10.8505 11.4811 10.1523 10.7667ZM1.99707 2.74704C1.99707 7.44116 1.99707 12.0796 1.99707 16.7183C4.33699 14.3792 6.66689 12.05 9.01272 9.70513C6.68939 7.40077 4.35798 5.08848 1.99707 2.74704ZM17.1213 9.72015C19.4366 12.0356 21.7536 14.3527 24.0257 16.625C24.0257 12.0661 24.0257 7.43043 24.0257 2.81543C21.7088 5.13256 19.3925 7.44904 17.1213 9.72015Z" fill="white"/>
</svg>
