<svg width="16" height="10" viewBox="0 0 16 10" fill="none" xmlns="http://www.w3.org/2000/svg">
<rect width="15.3309" height="9.61886" fill="white" fill-opacity="0.01"/>
<mask id="mask0_0_462" style="mask-type:luminance" maskUnits="userSpaceOnUse" x="0" y="0" width="16" height="10">
<rect width="15.3309" height="9.61886" fill="white"/>
</mask>
<g mask="url(#mask0_0_462)">
<path fill-rule="evenodd" clip-rule="evenodd" d="M5.80847 8.18965C5.46117 8.5878 5.12109 8.97687 4.78189 9.3667C4.49548 9.69588 4.18813 9.70391 3.89944 9.3838C2.65187 8.00045 1.40514 6.61635 0.1587 5.23199C-0.0560005 4.99355 -0.0518196 4.68193 0.16533 4.48501C0.380664 4.28974 0.695746 4.31533 0.909644 4.55228C2.01642 5.77837 3.12295 7.0047 4.22517 8.23492C4.31203 8.33184 4.35114 8.32922 4.43112 8.23145C4.62475 7.99462 4.82632 7.76375 5.03443 7.53955C5.11404 7.45382 5.10817 7.40606 5.03156 7.32206C4.40591 6.6356 3.78656 5.94349 3.16298 5.25521C3.04022 5.11969 2.95791 4.97286 2.98975 4.78464C3.02442 4.57935 3.14288 4.43387 3.34162 4.3769C3.55057 4.31693 3.73618 4.37289 3.88538 4.53949C4.26917 4.96796 4.6549 5.39466 5.03988 5.82203C5.76392 6.62581 6.48965 7.42802 7.20977 8.23534C7.29609 8.33213 7.33511 8.32576 7.41738 8.2312C9.74576 5.55691 12.0773 2.88532 14.4086 0.213685C14.6232 -0.0321817 14.925 -0.0691757 15.1502 0.119848C15.3796 0.312335 15.3941 0.623997 15.1737 0.877085C13.8362 2.41318 12.4963 3.94725 11.1573 5.48199C10.0264 6.77817 8.89473 8.07368 7.76569 9.37151C7.6045 9.55678 7.42426 9.66704 7.17032 9.59259C7.05964 9.5602 6.97742 9.48963 6.90225 9.40572C6.54303 9.00487 6.18251 8.60528 5.80847 8.18965ZM7.07843 6.45283C6.88649 6.43497 6.72496 6.34865 6.63779 6.15781C6.54852 5.96236 6.57423 5.77562 6.71516 5.61261C7.09443 5.17383 7.47641 4.7373 7.85771 4.3003C8.91499 3.08845 9.97329 1.87749 11.0288 0.664159C11.1669 0.505499 11.327 0.4101 11.5402 0.447643C11.9453 0.518928 12.0945 0.979917 11.8165 1.30307C11.4658 1.71076 11.1102 2.11436 10.7566 2.51964C9.68549 3.74733 8.61351 4.97438 7.54419 6.20367C7.42117 6.34502 7.28561 6.44996 7.07843 6.45283Z" fill="#5E4AE3"/>
</g>
</svg>
