<svg width="16" height="10" viewBox="0 0 16 10" fill="none" xmlns="http://www.w3.org/2000/svg">
<rect x="0.5" width="15.3309" height="9.61886" fill="white" fill-opacity="0.01"/>
<mask id="mask0_0_531" style="mask-type:luminance" maskUnits="userSpaceOnUse" x="0" y="0" width="16" height="10">
<rect x="0.5" width="15.3309" height="9.61886" fill="white"/>
</mask>
<g mask="url(#mask0_0_531)">
<path fill-rule="evenodd" clip-rule="evenodd" d="M6.30847 8.18965C5.96117 8.5878 5.62109 8.97687 5.28189 9.3667C4.99548 9.69588 4.68813 9.70391 4.39944 9.3838C3.15187 8.00045 1.90514 6.61635 0.6587 5.23199C0.444 4.99355 0.44818 4.68193 0.66533 4.48501C0.880664 4.28974 1.19575 4.31533 1.40964 4.55228C2.51642 5.77837 3.62295 7.0047 4.72517 8.23492C4.81203 8.33184 4.85114 8.32922 4.93112 8.23145C5.12475 7.99462 5.32632 7.76375 5.53443 7.53955C5.61404 7.45382 5.60817 7.40606 5.53156 7.32206C4.90591 6.6356 4.28656 5.94349 3.66298 5.25521C3.54022 5.11969 3.45791 4.97286 3.48975 4.78464C3.52442 4.57935 3.64288 4.43387 3.84162 4.3769C4.05057 4.31693 4.23618 4.37289 4.38538 4.53949C4.76917 4.96796 5.1549 5.39466 5.53988 5.82203C6.26392 6.62581 6.98965 7.42802 7.70977 8.23534C7.79609 8.33213 7.83511 8.32576 7.91738 8.2312C10.2458 5.55691 12.5773 2.88532 14.9086 0.213685C15.1232 -0.0321817 15.425 -0.0691757 15.6502 0.119848C15.8796 0.312335 15.8941 0.623997 15.6737 0.877085C14.3362 2.41318 12.9963 3.94725 11.6573 5.48199C10.5264 6.77817 9.39473 8.07368 8.26569 9.37151C8.1045 9.55678 7.92426 9.66704 7.67032 9.59259C7.55964 9.5602 7.47742 9.48963 7.40225 9.40572C7.04303 9.00487 6.68251 8.60528 6.30847 8.18965ZM7.57843 6.45283C7.38649 6.43497 7.22496 6.34865 7.13779 6.15781C7.04852 5.96236 7.07423 5.77562 7.21516 5.61261C7.59443 5.17383 7.97641 4.7373 8.35771 4.3003C9.41499 3.08845 10.4733 1.87749 11.5288 0.664159C11.6669 0.505499 11.827 0.4101 12.0402 0.447643C12.4453 0.518928 12.5945 0.979917 12.3165 1.30307C11.9658 1.71076 11.6102 2.11436 11.2566 2.51964C10.1855 3.74733 9.11351 4.97438 8.04419 6.20367C7.92117 6.34502 7.78561 6.44996 7.57843 6.45283Z" fill="#999999"/>
</g>
</svg>
