<svg width="33" height="38" viewBox="0 0 33 38" fill="none" xmlns="http://www.w3.org/2000/svg">
<path fill-rule="evenodd" clip-rule="evenodd" d="M14.2835 13.9767C13.9615 13.9767 13.7002 13.7153 13.7002 13.3933V11.4333C13.7002 10.7905 13.1764 10.2667 12.5335 10.2667C11.8907 10.2667 11.3669 10.7905 11.3669 11.4333V13.3933C11.3669 13.7153 11.1055 13.9767 10.7835 13.9767C10.4615 13.9767 10.2002 13.7165 10.2002 13.3933V11.4333C10.2002 10.1465 11.2467 9.10001 12.5335 9.10001C13.8204 9.10001 14.8669 10.1465 14.8669 11.4333V13.3933C14.8669 13.7165 14.6055 13.9767 14.2835 13.9767Z" fill="black" stroke="black" stroke-width="0.4"/>
<path fill-rule="evenodd" clip-rule="evenodd" d="M12.5335 37.1C10.2819 37.1 8.4502 35.2683 8.4502 33.0167C8.4502 32.6947 8.71153 32.4333 9.03353 32.4333C9.35553 32.4333 9.61686 32.6947 9.61686 33.0167C9.61686 34.6243 10.9259 35.9333 12.5335 35.9333C14.1412 35.9333 15.4502 34.6243 15.4502 33.0167C15.4502 32.6947 15.7115 32.4333 16.0335 32.4333C16.3555 32.4333 16.6169 32.6947 16.6169 33.0167C16.6169 35.2683 14.7852 37.1 12.5335 37.1Z" fill="black" stroke="black" stroke-width="0.4"/>
<path fill-rule="evenodd" clip-rule="evenodd" d="M22.45 33.6H2.6167C1.65187 33.6 0.866699 32.8148 0.866699 31.85C0.866699 31.3378 1.08953 30.8537 1.4792 30.52C3.31787 28.966 4.3667 26.705 4.3667 24.311V20.7667C4.3667 16.2633 8.03003 12.6 12.5334 12.6C17.0367 12.6 20.7 16.2633 20.7 20.7667V24.311C20.7 26.7062 21.7489 28.966 23.5782 30.5118C23.9772 30.8537 24.2 31.3378 24.2 31.85C24.2 32.8148 23.416 33.6 22.45 33.6ZM12.5332 13.7667C8.6727 13.7667 5.5332 16.9062 5.5332 20.7667V24.311C5.5332 27.0503 4.33387 29.6345 2.24204 31.4032C2.10787 31.5175 2.0332 31.6797 2.0332 31.85C2.0332 32.172 2.29454 32.4333 2.61654 32.4333H22.4499C22.7719 32.4333 23.0332 32.172 23.0332 31.85C23.0332 31.6797 22.9585 31.5175 22.829 31.4067C20.7337 29.6345 19.5332 27.0492 19.5332 24.311V20.7667C19.5332 16.9062 16.3937 13.7667 12.5332 13.7667V13.7667Z" fill="black"/>
<path d="M1.4792 30.52L1.3501 30.3673L1.34912 30.3681L1.4792 30.52ZM23.5782 30.5118L23.7083 30.36L23.7073 30.3591L23.5782 30.5118ZM12.5332 13.7667H12.7332V13.5667H12.5332V13.7667ZM2.24204 31.4032L2.1129 31.2504L2.11232 31.2509L2.24204 31.4032ZM22.829 31.4067L22.9591 31.2547L22.9582 31.254L22.829 31.4067ZM12.5332 13.7667H12.3332V13.9667H12.5332V13.7667ZM22.45 33.4H2.6167V33.8H22.45V33.4ZM2.6167 33.4C1.76232 33.4 1.0667 32.7044 1.0667 31.85H0.666699C0.666699 32.9253 1.54141 33.8 2.6167 33.8V33.4ZM1.0667 31.85C1.0667 31.3963 1.26395 30.9676 1.60928 30.6719L1.34912 30.3681C0.915115 30.7397 0.666699 31.2794 0.666699 31.85H1.0667ZM1.6083 30.6728C3.49182 29.0808 4.5667 26.764 4.5667 24.311H4.1667C4.1667 26.646 3.14391 28.8512 1.3501 30.3673L1.6083 30.6728ZM4.5667 24.311V20.7667H4.1667V24.311H4.5667ZM4.5667 20.7667C4.5667 16.3738 8.14049 12.8 12.5334 12.8V12.4C7.91958 12.4 4.1667 16.1529 4.1667 20.7667H4.5667ZM12.5334 12.8C16.9262 12.8 20.5 16.3738 20.5 20.7667H20.9C20.9 16.1529 17.1472 12.4 12.5334 12.4V12.8ZM20.5 20.7667V24.311H20.9V20.7667H20.5ZM20.5 24.311C20.5 26.765 21.5748 29.0808 23.4491 30.6646L23.7073 30.3591C21.9229 28.8513 20.9 26.6473 20.9 24.311H20.5ZM23.4481 30.6637C23.8034 30.9681 24 31.3971 24 31.85H24.4C24.4 31.2786 24.151 30.7392 23.7083 30.36L23.4481 30.6637ZM24 31.85C24 32.7045 23.3055 33.4 22.45 33.4V33.8C23.5266 33.8 24.4 32.9252 24.4 31.85H24ZM12.5332 13.5667C8.56225 13.5667 5.3332 16.7957 5.3332 20.7667H5.7332C5.7332 17.0166 8.78316 13.9667 12.5332 13.9667V13.5667ZM5.3332 20.7667V24.311H5.7332V20.7667H5.3332ZM5.3332 24.311C5.3332 26.9915 4.1598 29.5198 2.11291 31.2504L2.37117 31.5559C4.50794 29.7492 5.7332 27.1092 5.7332 24.311H5.3332ZM2.11232 31.2509C1.93427 31.4027 1.8332 31.6201 1.8332 31.85H2.2332C2.2332 31.7392 2.28147 31.6323 2.37176 31.5554L2.11232 31.2509ZM1.8332 31.85C1.8332 32.2824 2.18408 32.6333 2.61654 32.6333V32.2333C2.40499 32.2333 2.2332 32.0615 2.2332 31.85H1.8332ZM2.61654 32.6333H22.4499V32.2333H2.61654V32.6333ZM22.4499 32.6333C22.8823 32.6333 23.2332 32.2824 23.2332 31.85H22.8332C22.8332 32.0615 22.6614 32.2333 22.4499 32.2333V32.6333ZM23.2332 31.85C23.2332 31.6212 23.133 31.4035 22.9591 31.2547L22.699 31.5586C22.7841 31.6315 22.8332 31.7381 22.8332 31.85H23.2332ZM22.9582 31.254C20.9077 29.5197 19.7332 26.9902 19.7332 24.311H19.3332C19.3332 27.1081 20.5597 29.7493 22.6999 31.5594L22.9582 31.254ZM19.7332 24.311V20.7667H19.3332V24.311H19.7332ZM19.7332 20.7667C19.7332 16.7957 16.5042 13.5667 12.5332 13.5667V13.9667C16.2832 13.9667 19.3332 17.0166 19.3332 20.7667H19.7332ZM12.7332 13.7667V13.7667H12.3332V13.7667H12.7332Z" fill="black"/>
<circle cx="22.2002" cy="10.1" r="10" fill="#F7C71A"/>
<path d="M21.6742 14.1H22.6862V6.14701H20.6182V7.06001H21.6742V14.1Z" fill="white"/>
</svg>
