<svg width="24" height="31" viewBox="0 0 24 31" fill="none" xmlns="http://www.w3.org/2000/svg">
<path fill-rule="evenodd" clip-rule="evenodd" d="M15.8968 30.4154C15.7203 30.4154 15.5437 30.4154 15.3671 30.4154C15.0328 30.2028 14.6842 30.0092 14.3684 29.772C14.0718 29.5494 13.8102 29.2803 13.5323 29.0323C13.0299 28.5841 12.5269 28.1365 12.011 27.6771C11.2769 28.333 10.5724 28.9836 9.84276 29.6048C9.4916 29.9037 9.09289 30.1469 8.71561 30.4154C8.51943 30.4154 8.32326 30.4154 8.12699 30.4154C7.82646 30.2227 7.51375 30.0462 7.22884 29.8328C6.97091 29.6395 6.74351 29.4055 6.50216 29.1901C5.94 28.6884 5.37749 28.1872 4.80439 27.6763C4.70877 27.7593 4.6277 27.829 4.54734 27.8995C3.95837 28.4173 3.38403 28.953 2.7768 29.4485C2.13084 29.9756 1.1922 29.8096 0.741532 29.1271C0.53027 28.8072 0.512363 28.4498 0.512451 28.0833C0.513951 19.5924 0.513598 11.1016 0.514039 2.61065C0.514039 2.48327 0.515803 2.35563 0.524712 2.22861C0.568553 1.60338 1.00687 1.10623 1.61825 0.97224C2.1356 0.85889 2.55892 1.03549 2.9384 1.37289C3.55304 1.91926 4.17051 2.46254 4.79513 3.01438C4.87619 2.94682 4.94464 2.89283 5.00965 2.83488C5.70457 2.21485 6.38811 1.58133 7.09855 0.979561C7.41346 0.712902 7.78253 0.510108 8.12699 0.278381C8.30358 0.278381 8.48018 0.278381 8.65677 0.278381C8.99109 0.490967 9.33969 0.684588 9.65549 0.921784C9.95214 1.14443 10.2137 1.41355 10.4915 1.66142C10.994 2.10971 11.497 2.55728 12.0127 3.01668C12.747 2.36084 13.4514 1.71011 14.181 1.08903C14.5322 0.790086 14.931 0.546804 15.3081 0.278381C15.5043 0.278381 15.7005 0.278381 15.8967 0.278381C16.241 0.510461 16.6033 0.720136 16.925 0.980091C17.367 1.3369 17.7782 1.73173 18.2024 2.11041C18.5378 2.40971 18.8731 2.70927 19.2169 3.01641C19.307 2.93949 19.3816 2.87748 19.4544 2.81335C20.0354 2.30103 20.6067 1.77751 21.1991 1.27868C21.8482 0.731868 22.7338 0.845835 23.2442 1.52108C23.4819 1.83564 23.5125 2.20038 23.5125 2.58057C23.5093 11.082 23.5101 19.5834 23.5095 28.0848C23.5095 28.212 23.5078 28.3398 23.4988 28.4668C23.4548 29.0915 23.0158 29.5882 22.4037 29.7218C21.8864 29.8345 21.4625 29.6582 21.0833 29.3207C20.4689 28.774 19.8522 28.2298 19.2302 27.679C19.1552 27.7401 19.0932 27.7869 19.0355 27.8384C18.3333 28.4651 17.6426 29.1054 16.925 29.7141C16.6105 29.9809 16.2412 30.1835 15.8968 30.4154ZM22.0904 2.35671C21.437 2.93625 20.8555 3.47742 20.2437 3.98163C20.0177 4.16784 19.7343 4.32212 19.4523 4.39392C18.9588 4.51962 18.5375 4.31039 18.1676 3.97598C17.3254 3.21464 16.4762 2.46115 15.6191 1.69479C15.5162 1.78361 15.4266 1.8585 15.3396 1.93631C14.5787 2.61587 13.819 3.2965 13.0577 3.97563C12.379 4.5811 11.6509 4.58472 10.977 3.98516C10.4053 3.47663 9.83629 2.96527 9.26539 2.45595C8.98109 2.20235 8.6952 1.95042 8.40561 1.69382C7.55456 2.45524 6.72222 3.20159 5.88793 3.94581C5.16125 4.59407 4.46616 4.59989 3.73949 3.96249C3.26757 3.5486 2.80032 3.12926 2.33043 2.71291C2.21055 2.6067 2.08891 2.50261 1.94019 2.37321C1.94019 11.0418 1.94019 19.6543 1.94019 28.3296C2.5573 27.7822 3.1259 27.2757 3.6968 26.7719C4.48592 26.0756 5.143 26.0819 5.93194 26.7883C6.75018 27.5209 7.56938 28.2526 8.40182 28.9969C8.48844 28.9238 8.57162 28.8571 8.6511 28.7861C9.40494 28.1135 10.1583 27.4404 10.9116 26.767C11.668 26.0908 12.3527 26.0879 13.1016 26.7576C13.8547 27.4312 14.608 28.1044 15.362 28.7769C15.4463 28.8521 15.5353 28.9221 15.6214 28.9938C15.7041 28.9212 15.7633 28.8699 15.8217 28.8177C16.6113 28.1116 17.4031 27.4078 18.1896 26.698C18.5616 26.3621 18.9911 26.1718 19.4811 26.304C19.7624 26.3799 20.0412 26.5408 20.2677 26.7279C20.8777 27.2317 21.4589 27.7701 22.0904 28.3291C22.0904 19.6588 22.0904 11.0446 22.0904 2.35671Z" fill="white"/>
<path fill-rule="evenodd" clip-rule="evenodd" d="M12.0118 18.8767C14.1994 18.8767 16.3871 18.875 18.5746 18.8779C19.1405 18.8786 19.4642 19.2216 19.3767 19.7115C19.327 19.9897 19.1638 20.1728 18.8927 20.2392C18.7427 20.276 18.583 20.2863 18.4277 20.2864C14.1506 20.2888 9.87351 20.2887 5.59639 20.2864C5.44106 20.2863 5.28148 20.2758 5.13135 20.2394C4.8295 20.1662 4.6342 19.9039 4.62644 19.5959C4.61885 19.2962 4.81036 19.0122 5.10242 18.9286C5.241 18.8889 5.39192 18.8789 5.53738 18.8787C7.69544 18.8757 9.85367 18.8766 12.0118 18.8767Z" fill="white"/>
<path fill-rule="evenodd" clip-rule="evenodd" d="M12.0415 14.6406C14.2095 14.6406 16.3776 14.6398 18.5456 14.6412C19.0507 14.6415 19.3419 14.8642 19.3877 15.2741C19.4241 15.6012 19.2362 15.9057 18.9211 15.9988C18.792 16.0371 18.6513 16.051 18.5159 16.051C14.1798 16.0536 9.84377 16.0528 5.50782 16.054C5.20094 16.0541 4.92158 16.0041 4.7396 15.7204C4.49587 15.3405 4.67185 14.8252 5.10285 14.694C5.24045 14.6521 5.39217 14.6429 5.53754 14.6426C7.70548 14.6397 9.87359 14.6406 12.0415 14.6406Z" fill="white"/>
<path fill-rule="evenodd" clip-rule="evenodd" d="M8.83456 11.817C7.69753 11.817 6.56059 11.821 5.42375 11.8153C4.86141 11.8124 4.53336 11.4255 4.655 10.9288C4.73492 10.6024 5.01869 10.408 5.44306 10.4056C6.22716 10.4014 7.01126 10.4043 7.79536 10.4043C9.26555 10.4043 10.7357 10.402 12.2058 10.4055C12.8068 10.407 13.1555 10.8025 13.0146 11.3087C12.925 11.63 12.6552 11.8146 12.2454 11.8158C11.1084 11.8192 9.9714 11.817 8.83456 11.817Z" fill="white"/>
</svg>
