<svg width="26" height="26" viewBox="0 0 26 26" fill="none" xmlns="http://www.w3.org/2000/svg">
<path fill-rule="evenodd" clip-rule="evenodd" d="M13.7969 25.4741H12.2279C10.9589 25.4741 9.92647 24.4417 9.92647 23.1727V22.6419C9.38696 22.4695 8.86279 22.252 8.35923 21.9914L7.98306 22.3675C7.07197 23.2797 5.61255 23.253 4.72793 22.3672L3.61899 21.2583C2.73281 20.3731 2.70732 18.9142 3.61929 18.0032L3.99517 17.6273C3.73457 17.1237 3.51704 16.5997 3.34463 16.0601H2.81387C1.54492 16.0601 0.512451 15.0276 0.512451 13.7586V12.1896C0.512451 10.9206 1.54492 9.88818 2.81392 9.88818H3.34468C3.51709 9.34863 3.73462 8.82451 3.99521 8.32095L3.61904 7.94482C2.70762 7.03438 2.73276 5.57529 3.61934 4.6897L4.72837 3.58071C5.61504 2.69282 7.07412 2.67065 7.98345 3.58101L8.35928 3.95684C8.86284 3.69629 9.38701 3.47871 9.92651 3.3063V2.77554C9.92651 1.50654 10.9589 0.474121 12.228 0.474121H13.797C15.066 0.474121 16.0984 1.50654 16.0984 2.77554V3.30635C16.6379 3.47871 17.1621 3.69629 17.6656 3.95688L18.0418 3.58071C18.9529 2.66851 20.4123 2.69526 21.2969 3.58105L22.4059 4.68994C23.292 5.57515 23.3175 7.03408 22.4056 7.94507L22.0297 8.32095C22.2903 8.82451 22.5078 9.34858 22.6802 9.88818H23.211C24.48 9.88818 25.5125 10.9206 25.5125 12.1896V13.7586C25.5125 15.0276 24.48 16.0601 23.211 16.0601H22.6802C22.5078 16.5996 22.2903 17.1237 22.0297 17.6273L22.4059 18.0035C23.3173 18.9139 23.2921 20.373 22.4056 21.2586L21.2965 22.3676C20.4099 23.2555 18.9508 23.2776 18.0415 22.3673L17.6656 21.9915C17.1621 22.252 16.6379 22.4696 16.0984 22.642V23.1728C16.0984 24.4417 15.066 25.4741 13.7969 25.4741ZM8.6041 20.4531C9.30366 20.8668 10.0566 21.1794 10.8419 21.3821C11.1654 21.4655 11.3914 21.7572 11.3914 22.0913V23.1727C11.3914 23.634 11.7667 24.0093 12.228 24.0093H13.797C14.2583 24.0093 14.6336 23.634 14.6336 23.1727V22.0913C14.6336 21.7572 14.8596 21.4655 15.183 21.3821C15.9684 21.1794 16.7213 20.8668 17.4209 20.4531C17.7087 20.2829 18.0751 20.3292 18.3116 20.5657L19.0776 21.3317C19.4079 21.6624 19.9383 21.6547 20.2605 21.3321L21.3702 20.2224C21.6916 19.9014 21.7023 19.3709 21.3705 19.0396L20.6041 18.2732C20.3677 18.0368 20.3214 17.6703 20.4916 17.3825C20.9053 16.683 21.2178 15.93 21.4205 15.1446C21.504 14.8212 21.7957 14.5953 22.1296 14.5953H23.211C23.6723 14.5953 24.0477 14.22 24.0477 13.7587V12.1896C24.0477 11.7284 23.6723 11.3531 23.211 11.3531H22.1296C21.7956 11.3531 21.504 11.1271 21.4205 10.8037C21.2178 10.0183 20.9052 9.26538 20.4916 8.56587C20.3214 8.27808 20.3677 7.91157 20.6041 7.67515L21.3702 6.90908C21.7013 6.57832 21.6927 6.04805 21.3705 5.72622L20.2608 4.6166C19.9392 4.29453 19.4087 4.28511 19.078 4.61631L18.3117 5.38267C18.0752 5.61914 17.7086 5.66543 17.4209 5.49521C16.7213 5.08149 15.9684 4.76895 15.1831 4.56626C14.8596 4.48281 14.6336 4.19111 14.6336 3.85708V2.77554C14.6336 2.31426 14.2583 1.93896 13.797 1.93896H12.228C11.7667 1.93896 11.3914 2.31426 11.3914 2.77554V3.85698C11.3914 4.19102 11.1654 4.48272 10.842 4.56616C10.0566 4.76885 9.30371 5.0814 8.60415 5.49512C8.31626 5.66528 7.94981 5.61899 7.71338 5.38257L6.94736 4.6165C6.61709 4.28584 6.08667 4.29351 5.76455 4.61616L4.65483 5.72583C4.33345 6.04683 4.32271 6.57725 4.65454 6.90869L5.4209 7.67505C5.65733 7.91147 5.70361 8.27798 5.53345 8.56577C5.11973 9.26528 4.80723 10.0182 4.60454 10.8036C4.52105 11.1271 4.22935 11.353 3.89536 11.353H2.81392C2.35264 11.353 1.97729 11.7283 1.97729 12.1896V13.7586C1.97729 14.2199 2.35264 14.5952 2.81392 14.5952H3.89531C4.22935 14.5952 4.521 14.8212 4.60449 15.1446C4.80718 15.93 5.11973 16.6829 5.5334 17.3824C5.70357 17.6702 5.65728 18.0367 5.42085 18.2731L4.65479 19.0392C4.32363 19.37 4.33228 19.9002 4.65449 20.2221L5.76411 21.3317C6.08574 21.6538 6.61621 21.6632 6.94697 21.332L7.71328 20.5656C7.8875 20.3915 8.24995 20.2437 8.6041 20.4531Z" fill="white"/>
<path fill-rule="evenodd" clip-rule="evenodd" d="M13.0125 18.4136C10.0131 18.4136 7.573 15.9734 7.573 12.9741C7.573 9.9748 10.0131 7.53467 13.0125 7.53467C16.0118 7.53467 18.4519 9.9748 18.4519 12.9741C18.4519 15.9734 16.0118 18.4136 13.0125 18.4136ZM13.0125 8.99951C10.8208 8.99951 9.03784 10.7825 9.03784 12.9741C9.03784 15.1657 10.8209 16.9487 13.0125 16.9487C15.2041 16.9487 16.9871 15.1657 16.9871 12.9741C16.9871 10.7825 15.2041 8.99951 13.0125 8.99951V8.99951Z" fill="white"/>
</svg>
