<svg width="26" height="26" viewBox="0 0 26 26" fill="none" xmlns="http://www.w3.org/2000/svg">
<path fill-rule="evenodd" clip-rule="evenodd" d="M13.7448 0.233709C14.2828 0.310541 14.8245 0.367189 15.358 0.467917C17.0345 0.784427 18.5686 1.44896 19.9728 2.41366C20.114 2.51068 20.219 2.53405 20.3872 2.45514C21.2414 2.05418 22.2622 2.26058 22.8949 2.94133C23.5435 3.6394 23.6795 4.6444 23.2381 5.47595C22.7971 6.30652 21.8574 6.77338 20.9452 6.61509C19.9989 6.45094 19.2631 5.728 19.1358 4.78316C19.0955 4.48442 19.1428 4.16811 19.189 3.86573C19.2109 3.72235 19.2009 3.64917 19.0779 3.56817C16.9854 2.18824 14.6976 1.54077 12.1887 1.73741C9.32212 1.96218 6.90067 3.13543 4.93916 5.22813C3.32341 6.95198 2.3742 9.00223 2.06805 11.3498C1.80545 13.363 2.12847 15.2841 2.94315 17.1327C2.97193 17.198 2.99453 17.2659 3.0265 17.3496C2.58705 17.5537 2.16148 17.7513 1.68506 17.9725C1.47279 17.3992 1.2464 16.846 1.06304 16.279C0.789764 15.4339 0.618975 14.565 0.553732 13.6771C0.548523 13.6061 0.52658 13.5364 0.512451 13.4661C0.512451 12.9615 0.512451 12.4569 0.512451 11.9524C0.526125 11.8896 0.547547 11.8274 0.55243 11.7639C0.718206 9.6303 1.37753 7.66014 2.57188 5.88668C4.57108 2.91802 7.33158 1.0814 10.8601 0.425658C11.3133 0.341403 11.774 0.296671 12.2312 0.233643C12.7356 0.233709 13.2402 0.233709 13.7448 0.233709ZM21.2947 5.17246C21.7032 5.17396 22.0283 4.8555 22.0313 4.45089C22.0342 4.05468 21.7006 3.7176 21.3029 3.71486C20.8999 3.712 20.5751 4.036 20.5735 4.44269C20.5719 4.85413 20.885 5.17103 21.2947 5.17246Z" fill="white"/>
<path fill-rule="evenodd" clip-rule="evenodd" d="M12.28 25.2337C11.7502 25.1585 11.2166 25.1036 10.6912 25.0044C9.00724 24.6864 7.46467 24.022 6.05272 23.0543C5.91208 22.958 5.80731 22.9332 5.63828 23.0112C4.45741 23.5565 3.07605 22.9618 2.65471 21.7402C2.23467 20.5225 2.94498 19.1971 4.18113 18.8922C5.44711 18.5798 6.69967 19.3948 6.88804 20.6815C6.9316 20.9791 6.88068 21.2962 6.83621 21.5989C6.81551 21.7398 6.81941 21.8151 6.94456 21.8975C9.03739 23.2752 11.3246 23.9359 13.8326 23.7279C18.5895 23.3334 22.3962 20.1831 23.6669 15.5779C24.3453 13.1195 24.1197 10.7162 23.1051 8.38228C23.07 8.30168 23.036 8.22068 22.9998 8.13577C23.0413 8.10901 23.0662 8.0885 23.0945 8.07535C23.4917 7.89043 23.8893 7.70642 24.3229 7.50562C24.4632 7.84954 24.6084 8.18031 24.7342 8.51824C25.1304 9.58237 25.388 10.6783 25.4721 11.813C25.4768 11.8764 25.4986 11.9385 25.5125 12.0013C25.5125 12.5058 25.5125 13.0104 25.5125 13.5149C25.499 13.5694 25.4775 13.6231 25.4733 13.6782C25.2935 16.038 24.5114 18.1815 23.1047 20.0801C21.1122 22.7693 18.4652 24.4372 15.164 25.0412C14.7107 25.1242 14.2507 25.1704 13.7938 25.2336C13.2891 25.2337 12.7845 25.2337 12.28 25.2337ZM5.45122 21.0093C5.44698 20.601 5.12683 20.2905 4.7146 20.2951C4.30843 20.2997 3.98541 20.6295 3.99381 21.0311C4.00215 21.4307 4.34099 21.7599 4.73642 21.7524C5.14187 21.7448 5.45551 21.4187 5.45122 21.0093Z" fill="white"/>
<path fill-rule="evenodd" clip-rule="evenodd" d="M9.35037 7.60523C8.8507 7.60523 8.38183 7.60523 7.89935 7.60523C7.89935 7.11865 7.89935 6.6499 7.89935 6.1615C11.2974 6.1615 14.7009 6.1615 18.1219 6.1615C18.1219 6.62887 18.1219 7.10335 18.1219 7.59624C17.6521 7.59624 17.1832 7.59624 16.6744 7.59624C16.6744 7.69906 16.6744 7.78409 16.6744 7.86913C16.6744 8.51999 16.6824 9.17092 16.6724 9.82165C16.6558 10.9127 16.2347 11.8238 15.4243 12.5547C15.3647 12.6084 15.3051 12.6621 15.2296 12.7302C15.2945 12.7911 15.3505 12.8455 15.4087 12.8976C16.236 13.6377 16.6617 14.5623 16.6731 15.6726C16.6797 16.3152 16.6744 16.958 16.6744 17.6007C16.6744 17.6798 16.6744 17.7588 16.6744 17.8556C17.1673 17.8556 17.6362 17.8556 18.1221 17.8556C18.1221 18.3479 18.1221 18.8224 18.1221 19.3112C14.7166 19.3112 11.313 19.3112 7.89746 19.3112C7.89746 18.8333 7.89746 18.3647 7.89746 17.8691C8.37167 17.8691 8.8466 17.8691 9.35031 17.8691C9.35031 17.6264 9.3479 17.4094 9.35076 17.1926C9.35942 16.5341 9.33071 15.8722 9.38925 15.2181C9.47493 14.2602 9.93931 13.4798 10.6661 12.8543C10.7075 12.8187 10.7471 12.7811 10.7994 12.7337C10.7217 12.6632 10.657 12.6045 10.5922 12.5459C9.78233 11.8136 9.3647 10.9013 9.352 9.80986C9.34354 9.08699 9.35037 8.36372 9.35037 7.60523ZM15.2094 17.8512C15.2094 17.1101 15.2148 16.3956 15.2082 15.6812C15.1967 14.4427 14.2326 13.4706 13.0206 13.4668C11.7978 13.4631 10.8259 14.4403 10.8161 15.6892C10.811 16.3473 10.8147 17.0057 10.8159 17.6638C10.816 17.7256 10.8267 17.7874 10.8326 17.8512C12.2934 17.8512 13.7372 17.8512 15.2094 17.8512ZM10.8174 7.61893C10.8174 8.38536 10.8033 9.13923 10.8207 9.89232C10.8463 10.9912 11.7442 11.9135 12.8424 11.9956C13.9614 12.0792 15.0274 11.3086 15.1491 10.2028C15.2423 9.35521 15.1676 8.48915 15.1676 7.61893C13.7424 7.61893 12.2986 7.61893 10.8174 7.61893Z" fill="white"/>
</svg>
