<svg width="25" height="25" viewBox="0 0 25 25" fill="none" xmlns="http://www.w3.org/2000/svg">
<path fill-rule="evenodd" clip-rule="evenodd" d="M10.5 0.5C4.989 0.5 0.5 4.989 0.5 10.5C0.5 16.011 4.989 20.5 10.5 20.5C12.8965 20.5 15.0974 19.649 16.8223 18.2363L22.793 24.207C23.0438 24.4683 23.4162 24.5735 23.7667 24.4821C24.1171 24.3908 24.3908 24.1171 24.4821 23.7667C24.5735 23.4162 24.4683 23.0438 24.207 22.793L18.2363 16.8223C19.649 15.0974 20.5 12.8965 20.5 10.5C20.5 4.989 16.011 0.5 10.5 0.5ZM10.5 2.5C14.9301 2.5 18.5 6.06988 18.5 10.5C18.5 14.9301 14.9301 18.5 10.5 18.5C6.06988 18.5 2.5 14.9301 2.5 10.5C2.5 6.06988 6.06988 2.5 10.5 2.5Z" fill="#999999"/>
</svg>
