<svg width="31" height="31" viewBox="0 0 31 31" fill="none" xmlns="http://www.w3.org/2000/svg">
<path fill-rule="evenodd" clip-rule="evenodd" d="M16.6079 30.6H14.7251C13.2023 30.6 11.9633 29.3611 11.9633 27.8383V27.2013C11.3159 26.9945 10.6869 26.7334 10.0826 26.4207L9.63123 26.8721C8.53793 27.9667 6.78662 27.9346 5.72508 26.8717L4.39436 25.541C3.33094 24.4788 3.30035 22.7281 4.39471 21.6349L4.84576 21.1838C4.53305 20.5795 4.27201 19.9507 4.06512 19.3031H3.4282C1.90547 19.3031 0.666504 18.0642 0.666504 16.5414V14.6586C0.666504 13.1358 1.90547 11.8969 3.42826 11.8969H4.06518C4.27207 11.2494 4.53311 10.6205 4.84582 10.0162L4.39441 9.56485C3.3007 8.47231 3.33088 6.72141 4.39477 5.6587L5.72561 4.32792C6.78961 3.26245 8.54051 3.23585 9.6317 4.32827L10.0827 4.77926C10.687 4.46661 11.316 4.20551 11.9634 3.99862V3.36171C11.9634 1.83891 13.2023 0.600006 14.7251 0.600006H16.6079C18.1307 0.600006 19.3696 1.83891 19.3696 3.36171V3.99868C20.017 4.20551 20.646 4.46661 21.2503 4.77932L21.7017 4.32792C22.795 3.23327 24.5463 3.26538 25.6079 4.32833L26.9386 5.65899C28.002 6.72124 28.0326 8.47196 26.9382 9.56514L26.4872 10.0162C26.7999 10.6205 27.0609 11.2494 27.2678 11.8969H27.9047C29.4275 11.8969 30.6665 13.1358 30.6665 14.6586V16.5414C30.6665 18.0642 29.4275 19.3031 27.9047 19.3031H27.2678C27.0609 19.9506 26.7999 20.5795 26.4872 21.1838L26.9386 21.6352C28.0323 22.7278 28.0021 24.4787 26.9382 25.5414L25.6074 26.8722C24.5434 27.9376 22.7925 27.9642 21.7013 26.8718L21.2503 26.4208C20.646 26.7335 20.017 26.9946 19.3696 27.2015V27.8384C19.3696 29.3611 18.1307 30.6 16.6079 30.6ZM10.3765 24.5748C11.216 25.0713 12.1195 25.4463 13.0619 25.6896C13.45 25.7897 13.7212 26.1397 13.7212 26.5406V27.8383C13.7212 28.3918 14.1716 28.8422 14.7251 28.8422H16.6079C17.1615 28.8422 17.6119 28.3918 17.6119 27.8383V26.5406C17.6119 26.1397 17.883 25.7897 18.2712 25.6896C19.2136 25.4463 20.1171 25.0713 20.9566 24.5748C21.302 24.3706 21.7417 24.4261 22.0255 24.7099L22.9447 25.6291C23.3411 26.0259 23.9775 26.0167 24.3641 25.6296L25.6958 24.298C26.0814 23.9128 26.0943 23.2762 25.6961 22.8785L24.7765 21.9589C24.4928 21.6752 24.4372 21.2354 24.6414 20.89C25.1379 20.0506 25.5129 19.1471 25.7561 18.2046C25.8563 17.8165 26.2063 17.5454 26.6071 17.5454H27.9048C28.4583 17.5454 28.9088 17.095 28.9088 16.5415V14.6586C28.9088 14.1051 28.4583 13.6548 27.9048 13.6548H26.6071C26.2063 13.6548 25.8563 13.3836 25.7561 12.9955C25.5129 12.053 25.1378 11.1495 24.6414 10.3101C24.4372 9.96475 24.4928 9.52495 24.7765 9.24124L25.6958 8.32196C26.0931 7.92504 26.0828 7.28872 25.6961 6.90253L24.3646 5.57098C23.9786 5.1845 23.3421 5.17319 22.9451 5.57063L22.0256 6.49026C21.7419 6.77403 21.3019 6.82958 20.9566 6.62532C20.1172 6.12885 19.2137 5.7538 18.2712 5.51057C17.8831 5.41044 17.6119 5.0604 17.6119 4.65956V3.36171C17.6119 2.80817 17.1615 2.35782 16.608 2.35782H14.7252C14.1717 2.35782 13.7213 2.80817 13.7213 3.36171V4.65944C13.7213 5.06028 13.4501 5.41032 13.062 5.51046C12.1195 5.75368 11.216 6.12874 10.3765 6.6252C10.0311 6.8294 9.59133 6.77385 9.30762 6.49014L8.3884 5.57087C7.99207 5.17407 7.35557 5.18327 6.96902 5.57046L5.63736 6.90206C5.2517 7.28725 5.23881 7.92376 5.63701 8.32149L6.55664 9.24112C6.84035 9.52483 6.8959 9.96463 6.6917 10.31C6.19523 11.1494 5.82023 12.0529 5.57701 12.9954C5.47682 13.3835 5.12678 13.6546 4.726 13.6546H3.42826C2.87473 13.6547 2.42432 14.105 2.42432 14.6586V16.5414C2.42432 17.095 2.87473 17.5453 3.42826 17.5453H4.72594C5.12678 17.5453 5.47676 17.8165 5.57695 18.2046C5.82018 19.147 6.19523 20.0506 6.69164 20.89C6.89584 21.2353 6.84029 21.6751 6.55658 21.9588L5.63731 22.8781C5.23992 23.275 5.25029 23.9114 5.63695 24.2975L6.9685 25.6291C7.35445 26.0156 7.99102 26.0269 8.38793 25.6294L9.3075 24.7098C9.51656 24.5008 9.9515 24.3234 10.3765 24.5748Z" fill="black"/>
<path fill-rule="evenodd" clip-rule="evenodd" d="M15.6667 22.1273C12.0675 22.1273 9.1394 19.1992 9.1394 15.6C9.1394 12.0008 12.0675 9.07263 15.6667 9.07263C19.266 9.07263 22.1941 12.0008 22.1941 15.6C22.1941 19.1992 19.266 22.1273 15.6667 22.1273ZM15.6667 10.8304C13.0368 10.8304 10.8972 12.9701 10.8972 15.6C10.8972 18.2299 13.0368 20.3695 15.6667 20.3695C18.2967 20.3695 20.4363 18.2299 20.4363 15.6C20.4363 12.9701 18.2967 10.8304 15.6667 10.8304V10.8304Z" fill="black"/>
</svg>
