<svg width="27" height="25" viewBox="0 0 27 25" fill="none" xmlns="http://www.w3.org/2000/svg">
<rect y="0.291748" width="26.8109" height="24.4199" fill="white" fill-opacity="0.01"/>
<mask id="mask0_0_579" style="mask-type:luminance" maskUnits="userSpaceOnUse" x="0" y="0" width="27" height="25">
<rect y="0.291748" width="26.8109" height="24.4199" fill="white"/>
</mask>
<g mask="url(#mask0_0_579)">
<path fill-rule="evenodd" clip-rule="evenodd" d="M26.8109 11.8804C26.7045 12.3629 26.627 12.854 26.4858 13.3261C26.202 14.2754 25.5827 15.2549 24.9678 15.8215C24.6058 15.4594 24.2444 15.0978 23.8855 14.7388C25.7143 12.4782 25.7183 10.1855 23.875 7.89983C24.2244 7.5502 24.5854 7.18898 24.96 6.81421C25.6329 7.48868 26.1497 8.28731 26.4457 9.21317C26.6035 9.70672 26.6915 10.2227 26.8109 10.7285C26.8109 11.1124 26.8109 11.4964 26.8109 11.8804ZM6.24318e-08 10.7283C0.0688512 10.389 0.124924 10.0463 0.208997 9.71066C0.463733 8.69346 0.955816 7.80084 1.65187 7.01855C1.72044 6.94146 1.78063 6.8569 1.83126 6.79286C2.22733 7.189 2.58841 7.55016 2.94984 7.91166C1.01671 9.91232 1.21244 12.9695 3.00075 14.7805C2.81305 14.9586 2.62158 15.1344 2.43688 15.317C2.25777 15.4941 2.0855 15.6781 1.89376 15.8761C1.32144 15.3124 0.857986 14.6994 0.584955 13.9794C0.355219 13.3737 0.22415 12.7305 0.0504862 12.1036C0.030166 12.0302 0.0166891 11.955 0 11.8804C6.24318e-08 11.4964 6.24318e-08 11.1123 6.24318e-08 10.7283ZM7.10961 24.7116C7.10961 24.1937 7.10961 23.6913 7.10961 23.1621C8.94255 23.1621 10.7618 23.1621 12.5995 23.1621C12.5995 22.0578 12.5995 20.9798 12.5995 19.8768C12.4233 19.8437 12.2361 19.814 12.0513 19.7733C9.28457 19.1639 7.20744 16.7783 7.12567 13.9412C7.05116 11.352 7.05361 8.75723 7.13105 6.16819C7.21456 3.37944 9.40488 0.936974 12.1419 0.41284C15.6715 -0.262963 18.9445 1.95452 19.6121 5.48715C19.6877 5.8872 19.7092 6.30227 19.7108 6.71055C19.7199 8.97056 19.7219 11.2305 19.7135 13.4904C19.7027 16.4089 17.9398 18.8207 15.2193 19.6482C14.896 19.7466 14.5613 19.8076 14.2115 19.8907C14.2115 20.9565 14.2115 22.0333 14.2115 23.1388C16.0276 23.1388 17.8461 23.1388 19.69 23.1388C19.69 23.6745 19.69 24.1824 19.69 24.7117C15.5086 24.7116 11.3257 24.7116 7.10961 24.7116ZM8.86441 14.837C9.19484 16.4529 11.0141 18.5277 13.8086 18.3275C15.6956 18.1922 17.9019 16.3546 17.9309 14.8212C17.2187 14.8212 16.5068 14.8212 15.7883 14.8212C15.7883 14.2877 15.7883 13.7796 15.7883 13.2398C16.5794 13.2398 17.3506 13.2398 18.1188 13.2398C18.1188 12.4431 18.1188 11.6785 18.1188 10.8844C17.3329 10.8844 16.5616 10.8844 15.7873 10.8844C15.7873 10.3456 15.7873 9.83674 15.7873 9.29906C16.5776 9.29906 17.3489 9.29906 18.118 9.29906C18.118 8.50559 18.118 7.74146 18.118 6.94618C17.3315 6.94618 16.5604 6.94618 15.7901 6.94618C15.7901 6.4064 15.7901 5.89833 15.7901 5.36519C16.5225 5.36519 17.2332 5.36519 17.9484 5.36519C17.6109 3.75305 15.818 1.67739 13.0022 1.87396C11.1162 2.00565 8.93717 3.82183 8.876 5.38069C9.58902 5.38069 10.3015 5.38069 11.0244 5.38069C11.0244 5.91257 11.0244 6.42107 11.0244 6.96021C10.235 6.96021 9.46368 6.96021 8.69102 6.96021C8.69102 7.75556 8.69102 8.51998 8.69102 9.314C9.4759 9.314 10.2473 9.314 11.0244 9.314C11.0244 9.85266 11.0244 10.3614 11.0244 10.8989C10.2347 10.8989 9.46305 10.8989 8.69123 10.8989C8.69123 11.6926 8.69123 12.4572 8.69123 13.2538C9.4759 13.2538 10.2469 13.2538 11.0224 13.2538C11.0224 13.7946 11.0224 14.3029 11.0224 14.8371C10.2912 14.837 9.58008 14.837 8.86441 14.837ZM5.19295 10.1207C4.55765 10.9613 4.55632 11.6783 5.20594 12.5494C4.84339 12.9126 4.48328 13.2731 4.12066 13.6363C2.98539 12.7016 2.6884 10.3727 4.09482 9.01345C4.45381 9.37537 4.8128 9.73744 5.19295 10.1207ZM22.6999 13.6569C22.3273 13.2841 21.9664 12.9229 21.6037 12.5599C22.3365 11.6755 22.1496 10.7159 21.6057 10.1042C21.9681 9.74486 22.3298 9.38629 22.6955 9.0236C23.7546 9.85903 24.1813 12.1926 22.6999 13.6569Z" fill="white"/>
</g>
</svg>
