<svg width="21" height="22" viewBox="0 0 21 22" fill="none" xmlns="http://www.w3.org/2000/svg">
<rect width="20.1888" height="21.7412" fill="white" fill-opacity="0.01"/>
<mask id="mask0_0_813" style="mask-type:luminance" maskUnits="userSpaceOnUse" x="0" y="0" width="21" height="22">
<rect width="20.1888" height="21.7412" fill="white"/>
</mask>
<g mask="url(#mask0_0_813)">
<path fill-rule="evenodd" clip-rule="evenodd" d="M10.8709 10.8797C10.8709 14.1876 10.8713 17.4953 10.8693 20.8031C10.8692 20.9311 10.865 21.0642 10.8308 21.186C10.7293 21.5463 10.3834 21.7737 10.0181 21.7375C9.64693 21.7007 9.34745 21.3911 9.32002 21.0142C9.31594 20.9579 9.31795 20.9011 9.31795 20.8445C9.31788 14.1966 9.31885 7.54857 9.31536 0.900588C9.31516 0.53738 9.4214 0.246439 9.7586 0.0795855C10.2449 -0.160957 10.82 0.170614 10.8672 0.713808C10.8748 0.802184 10.8707 0.89166 10.8707 0.980553C10.8709 4.28029 10.8709 7.58002 10.8709 10.8797ZM3.10622 11.2593C3.10622 8.82498 3.10531 6.3907 3.10686 3.95642C3.10725 3.35027 3.60509 2.96177 4.13567 3.1523C4.4468 3.2641 4.6154 3.4959 4.65525 3.8212C4.66405 3.89301 4.65894 3.96664 4.65894 4.03942C4.65907 8.85138 4.65939 13.6633 4.65726 18.4753C4.65719 18.611 4.65034 18.7529 4.6112 18.8811C4.50548 19.2276 4.16091 19.4441 3.80488 19.408C3.44361 19.3714 3.14478 19.0719 3.11029 18.7076C3.10272 18.6273 3.10635 18.5459 3.10635 18.4651C3.10615 16.0631 3.10615 13.6612 3.10622 11.2593ZM15.5298 11.2587C15.5298 8.82446 15.5288 6.39017 15.5304 3.95589C15.5309 3.34994 16.0292 2.96156 16.5597 3.15242C16.8708 3.26435 17.0393 3.49635 17.0789 3.82171C17.0877 3.89352 17.0825 3.96715 17.0825 4.03987C17.0827 8.85182 17.0831 13.6638 17.0809 18.4757C17.0808 18.6114 17.0739 18.7533 17.0347 18.8815C16.9287 19.228 16.5839 19.4442 16.228 19.4079C15.8667 19.3711 15.5681 19.0714 15.5338 18.707C15.5263 18.6268 15.5299 18.5454 15.5299 18.4645C15.5297 16.0626 15.5298 13.6607 15.5298 11.2587ZM6.21211 11.2343C6.21211 9.57643 6.21004 7.91858 6.21327 6.26079C6.21444 5.66693 6.74146 5.28173 7.26537 5.48921C7.56142 5.60651 7.72491 5.83521 7.76134 6.15132C7.76962 6.2232 7.7649 6.29676 7.7649 6.36948C7.76503 9.62858 7.76515 12.8877 7.76438 16.1467C7.76438 16.2515 7.76787 16.3589 7.7471 16.4605C7.6674 16.8515 7.30011 17.1184 6.91006 17.0786C6.52 17.0387 6.21683 16.7133 6.21437 16.3048C6.20842 15.3021 6.21217 14.2993 6.21211 13.2965C6.21198 12.609 6.21204 11.9216 6.21211 11.2343ZM13.9767 11.2586C13.9767 12.9245 13.976 14.5905 13.9772 16.2563C13.9775 16.6067 13.8286 16.868 13.5107 17.0129C13.2088 17.1505 12.9244 17.0914 12.6778 16.8735C12.4826 16.701 12.4212 16.4755 12.422 16.2193C12.4259 14.9173 12.4238 13.6153 12.4238 12.3133C12.4238 10.2996 12.4224 8.28592 12.4248 6.27223C12.4255 5.66524 12.9592 5.27771 13.4899 5.49101C13.7995 5.61549 13.9759 5.8988 13.9763 6.28497C13.9774 7.94289 13.9767 9.60075 13.9767 11.2586ZM1.55322 11.2706C1.55322 12.1359 1.55393 13.0011 1.55296 13.8663C1.55238 14.3999 1.23698 14.7555 0.770584 14.752C0.314083 14.7485 0.000885875 14.3952 0.000691829 13.8781C-0.00014923 12.1314 -0.00014923 10.3848 0.000691829 8.63819C0.000950616 8.11912 0.311819 7.76879 0.770325 7.76523C1.2366 7.76161 1.55244 8.11744 1.55303 8.65067C1.55393 9.52395 1.55322 10.3973 1.55322 11.2706ZM18.6355 11.2461C18.6355 10.3809 18.6349 9.51567 18.6358 8.65047C18.6364 8.11543 18.9496 7.76199 19.4174 7.76523C19.8742 7.7684 20.1879 8.12125 20.1881 8.63838C20.1891 10.385 20.1891 12.1316 20.1881 13.8783C20.1879 14.3959 19.875 14.7485 19.4182 14.752C18.9521 14.7556 18.6363 14.3993 18.6358 13.8661C18.635 12.9928 18.6355 12.1195 18.6355 11.2461Z" fill="white"/>
</g>
</svg>
